<?xml version="1.0" standalone="no"?>
<!DOCTYPE svg PUBLIC "-//W3C//DTD SVG 1.1//EN" "http://www.w3.org/Graphics/SVG/1.1/DTD/svg11.dtd" >
<svg xmlns="http://www.w3.org/2000/svg">
<metadata>
Created by FontForge 20120731 at Mon Jun 23 15:48:04 2014
 By Ads
</metadata>
<defs>
<font id="iconfont" horiz-adv-x="1000" >
  <font-face 
    font-family="iconfont"
    font-weight="500"
    font-stretch="normal"
    units-per-em="1024"
    panose-1="2 0 6 3 0 0 0 0 0 0"
    ascent="812"
    descent="-212"
    x-height="792"
    bbox="0 -201 1064 1095"
    underline-thickness="50"
    underline-position="-100"
    unicode-range="U+0078-F005D"
  />
<missing-glyph horiz-adv-x="374" 
d="M34 0v682h272v-682h-272zM68 34h204v614h-204v-614z" />
    <glyph glyph-name=".notdef" horiz-adv-x="374" 
d="M34 0v682h272v-682h-272zM68 34h204v614h-204v-614z" />
    <glyph glyph-name=".null" horiz-adv-x="0" 
 />
    <glyph glyph-name="nonmarkingreturn" horiz-adv-x="341" 
 />
    <glyph glyph-name="x" unicode="x" horiz-adv-x="1001" 
d="M281 543q-27 -1 -53 -1h-83q-18 0 -36.5 -6t-32.5 -18.5t-23 -32t-9 -45.5v-76h912v41q0 16 -0.5 30t-0.5 18q0 13 -5 29t-17 29.5t-31.5 22.5t-49.5 9h-133v-97h-438v97zM955 310v-52q0 -23 0.5 -52t0.5 -58t-10.5 -47.5t-26 -30t-33 -16t-31.5 -4.5q-14 -1 -29.5 -0.5
t-29.5 0.5h-32l-45 128h-439l-44 -128h-29h-34q-20 0 -45 1q-25 0 -41 9.5t-25.5 23t-13.5 29.5t-4 30v167h911zM163 247q-12 0 -21 -8.5t-9 -21.5t9 -21.5t21 -8.5q13 0 22 8.5t9 21.5t-9 21.5t-22 8.5zM316 123q-8 -26 -14 -48q-5 -19 -10.5 -37t-7.5 -25t-3 -15t1 -14.5
t9.5 -10.5t21.5 -4h37h67h81h80h64h36q23 0 34 12t2 38q-5 13 -9.5 30.5t-9.5 34.5q-5 19 -11 39h-368zM336 498v228q0 11 2.5 23t10 21.5t20.5 15.5t34 6h188q31 0 51.5 -14.5t20.5 -52.5v-227h-327z" />
    <glyph glyph-name="uni3432" unicode="&#x3432;" 
d="M915 289l-5 7q-3 5 -12.5 16.5t-19 20.5t-23.5 16t-27 7t-27 -7t-25.5 -17.5t-21 -20.5t-14.5 -17l-5 -7q-2 2 -5 7t-13.5 17t-20.5 21.5t-24.5 16.5t-28.5 7q-24 -1 -44 -18.5t-33 -44.5v-265q-2 -27 -4.5 -40.5t-7.5 -27.5q-8 -25 -30 -45q-22 -19 -45 -27
q-19 -6 -51 -6q-7 0 -13.5 0.5t-13 1.5t-12.5 2.5t-12 3.5q-11 5 -20.5 11t-17.5 14q-15 16 -23.5 38.5t-8.5 58.5v25h73q0 -63 8 -75q13 -17 40 -18q5 -1 9.5 0t8 2t6.5 2.5t4 2.5h2q11 11 14 20l4 21q2 22 2 34v272q-2 2 -10.5 12.5t-14.5 17t-15.5 14.5t-19.5 12t-21 3
q-24 0 -48.5 -17.5t-36.5 -33.5l-13 -17q-2 3 -6 7.5t-15.5 16t-22 20.5t-24 16.5t-23.5 7.5q-6 0 -13 -2t-13.5 -6t-13 -9.5t-12.5 -11.5l-12 -10q-6 -6 -10.5 -11.5t-7.5 -9t-5 -6.5l-2 -2v20q0 13 5.5 51t16.5 73t36.5 79t60.5 77.5t94.5 60t133.5 33.5l52 73l50 -73
q60 -3 110.5 -19t84.5 -39t61 -54t43 -61t26.5 -64.5t14.5 -59.5t6 -50.5t1.5 -34t-0.5 -12.5z" />
    <glyph glyph-name="uni3433" unicode="&#x3433;" 
d="M891 501l-61 -36q-13 -7 -27.5 -3t-22 16.5t-3.5 27t17 22.5l61 35q-45 64 -109 108l-35 -61q-7 -13 -21.5 -16.5t-27.5 3.5t-17 21.5t4 27.5l35 61q-35 16 -72 26t-76 14v-71q0 -9 -5 -17.5t-13 -13.5t-18 -5q-15 0 -25.5 10.5t-10.5 25.5v71q-39 -4 -76 -14t-72 -26
l35 -61q8 -13 4 -27.5t-17 -21.5q-6 -4 -13.5 -4.5t-14 1t-12 6t-9.5 10.5l-35 61q-64 -44 -109 -108l61 -35q13 -8 17 -22.5t-3.5 -27t-22 -16.5t-27.5 3l-61 36q-41 -88 -41 -184q0 -118 58 -217.5t157.5 -157t216.5 -57.5q88 0 168 34t137.5 92t92 138t34.5 168
q0 48 -10.5 94.5t-30.5 89.5zM749.5 172.5q-29.5 -50.5 -76 -85t-99 -49t-110 -7.5t-108.5 36.5t-85.5 75.5t-48.5 99t-7.5 110.5t36 108t76 85.5t99 49t110 7t108.5 -36t85.5 -75.5t48.5 -99t7.5 -110.5t-36 -108.5zM652 502l-103 -173q-4 -6 -9.5 -10.5t-12 -6.5t-14 -1
t-13.5 5q-13 7 -17 21.5t4 27.5l103 173q-21 9 -44 13.5t-46 4.5q-65 0 -120.5 -32.5t-87.5 -87.5t-32 -120q0 -100 70.5 -170t169.5 -70t169.5 70t70.5 170q0 28 -6.5 54.5t-18 50t-27.5 44t-36 37.5z" />
    <glyph glyph-name="uni3434" unicode="&#x3434;" 
d="M842 -115h-652q-37 0 -60 29t-18 70l75 506q3 26 26 44.5t52 18.5h42q2 38 13 70t30 55.5t44.5 40t56 25t63.5 8.5q87 0 145.5 -53t61.5 -146h46q19 0 36 -8.5t28.5 -23t13.5 -31.5l75 -506q5 -41 -18 -70t-60 -29zM277 408q0 -21 15 -36t37 -15q6 0 13 1.5t12.5 5t10 8
t8 10.5t5.5 12.5t2 13.5q0 8 -2.5 16t-7.5 14t-11.5 11t-14 7.5t-15.5 2.5q-14 0 -26 -7t-19 -18.5t-7 -25.5zM514.5 714q-73.5 0 -122 -41.5t-52.5 -119.5h349q-4 78 -52.5 119.5t-122 41.5zM706 459q-10 0 -19.5 -4t-16.5 -11t-11 -16.5t-4 -19.5q0 -21 15 -36t36 -15
t36 15t15 36q0 10 -4 19.5t-11 16.5t-16.5 11t-19.5 4z" />
    <glyph glyph-name="uni3435" unicode="&#x3435;" 
d="M829 -117h-271v279h334v-216q0 -7 -1.5 -14t-4.5 -13.5t-7.5 -12t-10 -10t-12 -7.5t-13.5 -4.5t-14 -1.5zM558 489q-31 8 -39 16l-1 1q-1 -1 -2 -1q-12 -12 -27 -16v-258h-351v222q0 26 18.5 44.5t44.5 18.5h147q-26 15 -45 33q-44 41 -51 92.5t27 83.5q10 9 22 15t25 9
t27 3q64 0 116 -49q30 -28 49 -67q19 40 49 67q17 16 36.5 27t39.5 16.5t40 5.5q45 0 73 -27q35 -32 28 -83.5t-51 -92.5q-10 -9 -21.5 -17t-23.5 -16h141q13 0 24.5 -5t20 -13.5t13.5 -20t5 -24.5v-222h-334v258zM425 656q-34 31 -72 31q-20 0 -29 -9l-4 -4q-1 -1 -2.5 -6
t-1.5 -11q0 -32 31 -61q22 -20 53 -33.5t56 -13.5q6 0 10 1t5 1.5t2 0.5q5 11 -8 45t-40 59zM564 551l2 -1q2 0 5.5 -0.5t7.5 -0.5q26 0 57 13.5t53 33.5q31 29 31 61q0 14 -8 21q-10 9 -29 9q-38 0 -72 -31q-27 -25 -39.5 -59t-7.5 -46zM489 -117h-288q-26 0 -44.5 18.5
t-18.5 44.5v216h351v-279z" />
    <glyph glyph-name="uni3436" unicode="&#x3436;" 
d="M724 84q1 4 5 16t5 17.5t4 26t1.5 40t-1.5 59.5q58 57 100 129.5t62 130t31 118.5t12.5 85.5t1.5 40.5h1h-1v0q-16 0 -40.5 -1.5t-85.5 -12.5t-118.5 -31t-130 -62.5t-129.5 -99.5q-40 0 -59.5 1.5t-40 -1.5t-26 -4t-17.5 -5t-16 -5q-41 -12 -120 -97q-65 -70 -73 -104
q-5 -16 0 -28t17 -17.5t21 -8t19 -3.5q5 0 26 1t41.5 1.5t38.5 -0.5t21 -6q2 -1 4.5 -4t7 -13t5.5 -23q0 -23 10 -50t26 -45v-1v0h1q12 -11 29 -19t34 -12.5t32 -5.5q13 0 23 -4t13 -8l4 -4q6 -4 6.5 -31t-1 -59t-1.5 -37q1 -10 3.5 -19t8 -21t17.5 -17t28 -1
q37 10 113.5 83t87.5 111zM582 384q-12 11 -19 25.5t-9 29.5t0 30.5t9 30t19 25.5q14 14 33 21.5t38 7.5t37.5 -7.5t32.5 -21.5q19 -19 26 -45t0 -51.5t-26 -44.5q-14 -15 -32.5 -22.5t-37.5 -7.5t-38 7.5t-33 22.5zM350 49q-42 6 -70 34q-8 9 -15 18.5t-12 23t-7 28.5
q-3 20 -13.5 30t-24.5 8q-13 -2 -44.5 -36.5t-34.5 -51.5q-1 -7 3.5 -11t11.5 -5t16 -3.5t14 -7.5q20 -17 -14 -85q-12 -23 -4 -32q9 -8 33 4q67 34 85 14q3 -4 5.5 -9.5t3 -10.5t2 -10t3 -9t4.5 -5.5t9 -0.5q16 2 50.5 33.5t36.5 45.5q2 13 -8 23.5t-30 14.5z" />
    <glyph glyph-name="uni3437" unicode="&#x3437;" 
d="M514 -86l-156 263q-170 -65 -228 -105q-26 -17 -47.5 -58t-29.5 -69t-8 -32h940q-1 4 -2.5 12t-8 30t-15.5 41.5t-25 41t-35 34.5q-59 40 -228 105zM514 125l-52 -53l26 -52l-78 -106h209l-79 106l26 52zM520 728q65 0 111.5 -20.5t69 -46t34.5 -70t13.5 -70t1.5 -68.5
q0 -30 -10.5 -67t-31 -74.5t-47.5 -69t-64.5 -51.5t-76.5 -20q-49 0 -94 30t-73.5 74.5t-45.5 92t-17 85.5v36q0 13 2.5 38.5t6 41.5t11.5 39t19.5 38.5t29 32t40 26.5t53.5 16.5t68 6.5z" />
    <glyph glyph-name="uni3438" unicode="&#x3438;" 
d="M754 349q7 7 9 17q3 21 -17 31l-194 98l34 214q3 21 -15 30q-17 8 -33 -8l-150 -148l-201 96q-8 4 -19 3.5t-18 -7.5v-1q-15 -15 -4 -36l96 -201l-149 -145q-16 -17 -8 -33q4 -9 12 -12.5t18 -1.5l216 33l100 -193q10 -19 32 -16q10 1 17 8q3 4 5 8t3 9l34 213l215 34
q10 1 17 8zM614 284l-63 -8l-9 -54l292 -328q45 12 67 34q5 5 9.5 10t8 10.5t7 11.5t6 11.5t5 10.5t4 9t3 7l2.5 5v2z" />
    <glyph glyph-name="uni3439" unicode="&#x3439;" 
d="M930 256l-441 441q-7 7 -21 13.5t-25 7.5l-238 22q-7 1 -16 -1t-17 -6.5t-13 -9.5l-54 -54q-8 -8 -13 -21.5t-4 -24.5l21 -239q3 -27 22 -46l440 -440q5 -6 12 -7.5t14 0t12 7.5l321 320q8 8 8 19t-8 19zM272 554q-17 -17 -41.5 -17t-41.5 17t-17 41.5t17 41.5
q11 12 26.5 16t30.5 -0.5t26 -15.5q5 -5 8.5 -10.5t5.5 -11.5t3 -12.5t0 -13t-3 -12.5t-5.5 -12t-8.5 -11z" />
    <glyph glyph-name="uni343A" unicode="&#x343a;" 
d="M872 675q28 0 47.5 -19.5t19.5 -47.5v-51q0 -28 -19.5 -47.5t-47.5 -19.5h-742q-28 0 -47.5 19.5t-19.5 47.5v51q0 28 19.5 47.5t47.5 19.5h742zM872 362q28 0 47.5 -19.5t19.5 -47.5v-51q0 -28 -19.5 -47.5t-47.5 -19.5h-742q-28 0 -47.5 19.5t-19.5 47.5v51
q0 28 19.5 47.5t47.5 19.5h742zM872 49q28 0 47.5 -19.5t19.5 -47.5v-51q0 -28 -19.5 -47.5t-47.5 -19.5h-742q-28 0 -47.5 19.5t-19.5 47.5v51q0 28 19.5 47.5t47.5 19.5h742z" />
    <glyph glyph-name="uni343B" unicode="&#x343b;" 
d="M500 715q86 0 161.5 -32.5t131.5 -89t88.5 -132t32.5 -161.5t-32.5 -161t-88.5 -131.5t-131.5 -89t-161.5 -32.5t-161 32.5t-131.5 89t-89 131.5t-32.5 161t32.5 161.5t89 132t131.5 89t161 32.5zM743 112q5 14 8 31.5t5 37.5q-14 5 -27.5 10.5t-27.5 11.5q-1 -12 -3 -27
t-5 -34q-5 -30 -44 -30h-30q-40 -3 -37 34v135l76 2l35 -35l45 40q-39 35 -77.5 69t-76.5 66l-39 -30q5 -5 12.5 -11.5t17.5 -16.5q22 -19 31 -31l-236 -6q54 45 128 119h251v55h-211q-1 3 -2 9l-4 14q-5 16 -8.5 26t-4.5 16l-66 -7q2 -5 5 -15t8 -24q5 -15 6 -19h-232v-55
h180q-47 -52 -96 -91q-22 -22 -52 -35l29 -55q8 2 23.5 4t41.5 4h24q0 -75 -33 -108q-29 -35 -124 -65q2 -4 5 -8.5t8 -11.5q8 -11 13.5 -19t8.5 -14q194 60 182 231l73 2v-152q-2 -70 72 -67h65q71 -3 83 50z" />
    <glyph glyph-name="uni343C" unicode="&#x343c;" 
d="M668 520q15 0 36 10t44 19.5t45 13t40 -11t29 -51.5t11 -108v-452q0 -29 -13 -54.5t-36 -44.5t-55 -30t-70 -11h-414q-28 0 -54.5 11t-47 30t-33 44.5t-12.5 54.5v452q2 70 14 106.5t31 50.5t41.5 11.5t44.5 -11.5t40.5 -19t29.5 -10h27q10 0 18.5 5t14.5 13t9 17t3 17
v278h-9q-13 0 -22 8t-9 19t9 19t22 8h9v17h-9q-13 0 -22 8t-9 19t9 19t22 8h9v8q0 2 0.5 4.5t0.5 4.5h-10q-13 0 -22 8t-9 19t9 19t22 8h18q10 26 38.5 37.5t88.5 11.5q46 0 70 -6.5t34.5 -20.5t12 -35t1.5 -50v-70q0 -30 -10.5 -42.5t-23.5 -20.5t-23 -18t-8 -35v-225
q0 -18 14.5 -35t31.5 -17h22zM628 -23q0 15 -12.5 26t-29.5 11h-160q-18 0 -30.5 -11t-12.5 -26v-2q0 -15 12.5 -26t30.5 -11h160q17 0 29.5 11t12.5 26v2zM509 68q35 0 66 13.5t54 36.5t36.5 54.5t13.5 66.5t-13.5 66t-36.5 54t-54 36.5t-66 13.5t-65.5 -13.5t-53.5 -36.5
t-36.5 -54t-13.5 -66t13.5 -66.5t36.5 -54.5t53.5 -36.5t65.5 -13.5zM509 357q24 0 45.5 -9.5t37.5 -25.5t25.5 -37.5t9.5 -45.5t-9.5 -45.5t-25.5 -37.5t-37.5 -25.5t-45.5 -9.5t-45.5 9.5t-37 25.5t-25 37.5t-9.5 45.5t9.5 45.5t25 37.5t37 25.5t45.5 9.5z" />
    <glyph glyph-name="uni343D" unicode="&#x343d;" 
d="M320 689q23 0 40 -16.5t17 -40.5v-776q0 -23 -17 -39.5t-40 -16.5h-132q-24 0 -40.5 16.5t-16.5 39.5v776q0 24 16.5 40.5t40.5 16.5h132zM339 264q0 8 -6 14t-14 6t-13.5 -6t-5.5 -14v-102q0 -8 5.5 -14t13.5 -6t14 6t6 14v102zM801 689q24 0 40.5 -18t16.5 -50v-776
q0 -15 -16.5 -30t-40.5 -15h-315q-24 0 -40.5 16.5t-16.5 39.5v776q0 24 16.5 40.5t40.5 16.5h315zM507 264q0 8 -5.5 14t-13.5 6t-14 -6t-6 -14v-102q0 -8 6 -14t14 -6t13.5 6t5.5 14v102zM754 529q0 17 -9 28t-23 11h-150q-14 0 -23 -11t-9 -28v-103q0 -17 9 -28.5
t23 -11.5h150q14 0 23 11.5t9 28.5v103z" />
    <glyph glyph-name="uni343E" unicode="&#x343e;" 
d="M189 -94h462v-51q0 -20 -15 -37.5t-44 -17.5h-343q-26 0 -43 16t-17 39v51zM810 323q34 0 66 -4.5t54 -19.5t31.5 -43t0.5 -76q-10 -50 -29.5 -76t-45 -37.5t-55 -11.5t-60.5 2q-11 -18 -25 -32.5t-30 -28t-32.5 -28t-33.5 -32.5h-462q-22 31 -49 52t-50 48.5t-39 70.5
t-16 117v105q0 20 7 30t16 15q11 5 24 7h681q12 -2 23 -7q9 -5 16.5 -15t7.5 -30v-6zM246 459q-2 -15 -13 -22.5t-23.5 -7.5t-23 7.5t-10.5 22.5q0 35 3.5 57.5t6.5 42.5q5 29 17.5 49t26 36.5t24.5 32t14 36.5q4 30 5.5 47.5t5 26t10.5 10.5t23 2t23 -11.5t8 -29t-2 -37
t-6 -34.5q-2 -14 -9.5 -28.5t-17.5 -30t-20 -30.5t-18 -29q-9 -15 -14 -37.5t-10 -72.5zM435 459q-2 -15 -13 -22.5t-23.5 -7.5t-23 7.5t-10.5 22.5q0 35 3.5 57.5t7.5 42.5q5 29 17.5 49t25.5 36.5t24 32t14 36.5q4 30 6 47.5t5.5 26t10.5 10.5t23 2t22.5 -11.5t7.5 -29
t-1.5 -37t-5.5 -34.5q-3 -14 -10.5 -28.5t-17 -30t-20 -30.5t-18.5 -29q-9 -15 -14 -37.5t-10 -72.5zM625 459q-2 -15 -13 -22.5t-23.5 -7.5t-23 7.5t-10.5 22.5q0 35 3 57.5t7 42.5q5 29 17.5 49t26 36.5t24.5 32t14 36.5q4 30 5.5 47.5t5 26t10.5 10.5t23 2t23 -11.5
t8 -29t-2 -37t-6 -34.5q-3 -14 -10.5 -28.5t-17 -30t-19.5 -30.5t-18 -29q-5 -8 -8.5 -16.5t-6 -21t-4.5 -30t-5 -42.5z" />
    <glyph glyph-name="uni343F" unicode="&#x343f;" 
d="M297 437q-14 0 -21 5t-10 12q-4 8 -4 18v66q0 19 7.5 28.5t16.5 14.5q11 5 24 5h387q13 0 24 -5q9 -5 16.5 -14.5t7.5 -28.5v-66q0 -10 -4 -18q-3 -7 -9.5 -12t-20.5 -5h-414zM818 -121q0 -22 -8 -40q-7 -15 -21.5 -27t-41.5 -12h-486q-28 0 -42 12t-21 27q-8 18 -9 40
v374q0 33 12 47t22 24l71 66h433l57 -66q10 -10 22 -24t12 -47v-374zM662 137h-105v106h-107v-106h-105v-107h105v-105h107v105h105v107z" />
    <glyph glyph-name="uni3440" unicode="&#x3440;" 
d="M125 361h751v-127h-23q-20 0 -26 10.5t-10 23.5t-12.5 24t-32.5 13q-24 1 -43.5 -8.5t-37.5 -21.5t-35.5 -22.5t-37.5 -10.5t-30 9t-18.5 19.5t-19.5 19.5t-32 9t-42 -7t-41 -15.5t-40 -15.5t-39 -7q-20 0 -34 5t-28.5 11.5t-31 12.5t-41.5 8q-28 2 -53 -7.5t-43 -21.5
v99zM125 48h751v-125h-751v125zM765 234q17 1 26 -7t17.5 -19t18.5 -20t28 -9h21v-68h-751v78q13 12 36.5 25.5t53.5 13.5q22 0 35 -7t25 -15.5t27.5 -15.5t43.5 -7t50.5 6.5t42 15t36 15t31.5 6.5q24 0 33 -8t16.5 -17t18.5 -17t38 -8t48 8.5t38.5 19t33.5 19.5t33 11z
M876 424h-751v63q8 42 41 77t84 60.5t115.5 39.5t135.5 14q72 0 136.5 -14t114.5 -39.5t83 -60.5t41 -77v-63zM339 550q13 0 22 9t9 22t-9 22t-22 9t-22 -9t-9 -22t9 -22t22 -9zM526 612q14 0 22.5 9t8.5 22t-8.5 22t-22.5 9q-13 0 -21.5 -9t-8.5 -22t8.5 -22t21.5 -9z
M652 550q13 0 22 9t9 22t-9 22t-22 9t-22 -9t-9 -22t9 -22t22 -9z" />
    <glyph glyph-name="uni3441" unicode="&#x3441;" 
d="M688 486v-595q0 -17 -6.5 -33t-19.5 -29.5t-31.5 -21.5t-43.5 -8h-114q-51 0 -74.5 29t-23.5 68v590h313zM625 551h-188v106q0 17 2 27t7 17t13 13.5t19 16.5q32 29 51.5 43.5t35.5 19.5q23 8 35.5 6t18 -11t6 -23t0.5 -29v-186z" />
    <glyph glyph-name="uni3442" unicode="&#x3442;" 
d="M147 419q-11 -13 -20 -31q-8 -15 -14 -36t-6 -48q0 -32 5.5 -56t12.5 -40q8 -18 19 -32q17 11 31 29q11 15 21 38.5t10 58.5q0 26 -9.5 48t-20.5 37q-13 18 -29 32zM178 455q19 -20 34 -45q13 -21 23.5 -48.5t10.5 -58.5q0 -42 -12 -71.5t-26 -49.5q-17 -23 -37 -37
q22 -17 47 -29q21 -11 47.5 -20t54.5 -9q30 0 56 7.5t46 17.5q23 11 41 26q-20 15 -37 39q-14 20 -26 51t-12 76q-1 32 11 58.5t26 46.5q17 23 38 41q-18 16 -41 28q-20 11 -46 19.5t-56 8.5q-29 0 -54 -8t-45 -18q-23 -11 -43 -25zM488 418q10 -12 19 -30q8 -15 14 -36.5
t6 -48.5q0 -32 -6 -56t-13 -40q-8 -19 -18 -32q-18 11 -31 29q-11 15 -21 38.5t-9 58.5q0 26 9 48t20 37q13 18 30 32zM678 254q-8 57 -15.5 98.5t-8.5 76.5q-1 17 -2 58.5t-2.5 88t-2.5 89t-1 61.5q1 40 23.5 58.5t60.5 16.5q35 -1 58.5 -17t23.5 -52v-72q0 -41 -0.5 -82.5
t-1 -79t-1.5 -60.5t-3.5 -43t-6 -41.5t-8 -45.5t-8.5 -54h-105zM685 206l20 -246q-12 -3 -23 -7q-9 -4 -18.5 -9.5t-14.5 -14.5t-2 -20.5t13.5 -22t28.5 -18t44 -7.5t45.5 7.5t30.5 18.5t13.5 23.5t-4.5 21.5q-8 9 -17.5 15t-18.5 9q-11 4 -21 5l18 245h-94z" />
    <glyph glyph-name="uni3443" unicode="&#x3443;" 
d="M357 796q12 2 18.5 -10t14.5 -26q3 -7 17.5 -26.5t31 -41.5t31 -41t17.5 -25q8 -13 9 -20.5t-12 -6.5q-6 1 -15.5 -1.5t-19 -6.5t-18 -9.5t-12.5 -9.5q-5 -6 -9.5 -5.5t-8.5 5.5t-7.5 12.5t-4.5 15.5q-2 10 -7 29t-11 40.5t-11 42.5t-8 35q-5 25 -3.5 36t8.5 13zM647 796
q7 -2 8.5 -13t-3.5 -36q-3 -14 -8 -35t-11 -42.5t-11 -40.5t-7 -29q-2 -8 -5 -15.5t-7 -12.5t-9 -5.5t-10 5.5q-3 4 -11.5 9.5t-18.5 9.5t-19 6.5t-15 1.5q-13 -1 -12 6.5t8 20.5q4 6 18 25t30.5 41t31 41.5t18.5 26.5q8 14 14.5 26t18.5 10zM478 397h46l1 141h9q5 0 10 0.5
t13 0.5q7 0 15 -5l16 -8q8 -5 15.5 -8.5t13.5 -2.5q6 0 13 11t14.5 27t14 33.5t12.5 30.5q5 13 10 31t8 35q4 19 6 40l36 -6q15 -3 31 -6t27 -5q10 -3 18 -5t15 -6.5t14.5 -11.5t17.5 -19t25 -35.5t30.5 -49.5t28.5 -49t18 -34q7 -14 2.5 -18t-9.5 -8q-6 -4 -20 -13.5
t-31 -20.5t-34 -20.5t-28 -13.5t-14.5 -2.5t-6.5 6.5q-2 3 -8 11.5t-13 18t-13 18t-8 10.5q-4 5 -10 0.5t-6 -20.5q0 -8 -0.5 -27.5t-0.5 -48.5v-63v-73q0 -103 -2.5 -165t-4.5 -97q-3 -40 -6 -58h-484q-3 29 -6 64q-2 30 -4.5 71t-1.5 89v79q0 41 -0.5 78t-1 65.5
t-0.5 42.5v45q0 17 -9 19q-5 1 -9.5 -3t-9.5 -11t-9.5 -15t-8.5 -14q-8 -11 -12.5 -16t-7.5 -6t-5 0l-8 3q-13 4 -30.5 13.5t-34 20t-29 19.5t-16.5 12q-8 5 -11.5 8t1.5 19q3 8 13.5 28t25 43.5t29.5 47t27 40.5q17 25 33.5 36t39.5 16q11 2 27.5 4.5t30.5 5.5q17 4 35 7
q4 -21 8 -40q4 -17 7.5 -34.5t7.5 -28.5q3 -11 10 -27.5t14.5 -32.5t15 -28.5t12.5 -15.5q10 -5 23 5t30 15q8 2 16 2.5t14 0.5q7 -1 13 -2v-140z" />
    <glyph glyph-name="uni3444" unicode="&#x3444;" 
d="M492 430q29 1 47.5 8t32.5 12q13 5 30.5 22t28.5 39q5 11 12.5 14.5t15.5 2.5t16.5 -5t15.5 -7t21.5 -11t31.5 -17t35 -18t31 -15q23 -10 33 -22.5t16 -21.5q3 -5 12.5 -21.5t21 -39t23 -49t17.5 -51.5q6 -26 10.5 -50.5t1 -48t-18 -45.5t-45.5 -42q-32 -20 -78.5 -36.5
t-100 -29t-108 -19.5t-102.5 -7t-102 7t-105.5 18.5t-96 27t-72.5 31.5t-44.5 32t-24 33.5t-8.5 38t1 46.5q2 25 12.5 56t24 60t26 52t19.5 33q6 9 16.5 23.5t30.5 22.5q10 4 28.5 13.5t39.5 20t40.5 21t32.5 16.5q10 5 17.5 4.5t12.5 -3.5t8 -7t5 -7q3 -5 10 -17.5
t35 -34.5q14 -11 30 -16.5t30 -8.5q17 -4 34 -4zM493 809h8q6 0 15.5 -3t23.5 -10.5t32 -23.5q19 -17 36 -38.5t30 -41t20.5 -33.5t8.5 -17l3 -10q3 -8 3 -16t-4 -16t-15 -12q-12 -4 -21 -2t-14.5 7t-8 11.5t-1.5 11.5q2 14 0.5 24.5t-11.5 30.5q-11 24 -27 46t-27 34
q-10 11 -24.5 17t-27.5 6q-18 -1 -32 -9.5t-24 -17.5q-5 -5 -11.5 -14.5t-13.5 -20.5t-13.5 -21.5t-9.5 -16.5q-7 -13 -10.5 -22t-1.5 -31t-9 -29.5t-25 -5.5q-14 1 -25 13t-3 34q4 11 13.5 27t21.5 34t26 35.5t27 31.5q26 28 48 38t43 10z" />
    <glyph glyph-name="uni3445" unicode="&#x3445;" 
d="M660 787q48 0 64.5 -21t16.5 -65v-200q0 -37 -18 -60t-68 -23h-303q-48 0 -67 22t-19 70v191q0 42 18 64t67 22h309zM698 364q24 0 33.5 -12t9.5 -32v-81q0 -21 -11 -34.5t-39 -13.5h-375q-23 0 -36.5 9t-13.5 38v83q0 43 48 43h384zM786 138v325q0 27 15.5 39t38.5 12
h46q29 0 38.5 -18t9.5 -37v-37v-76v-98v-99v-80v-42q0 -60 -58 -60h-35v-88h-64v88h-546v-88h-63v88h-40q-53 0 -55 62v435q0 25 15 37.5t38 12.5h39q29 0 42.5 -15.5t14.5 -40.5v-22q0 -16 -0.5 -39.5t-0.5 -51.5v-57v-150h565z" />
    <glyph glyph-name="uni3446" unicode="&#x3446;" 
d="M501 840q16 0 22 -6.5t7 -12.5q1 -11 -2 -16t0 -15q2 -5 6.5 -11.5t17.5 -10.5q14 -4 30.5 -12t30.5 -27q4 -6 7.5 -14t5.5 -16q3 -9 4 -17h-258q1 7 3 14q2 6 4 13t7 15q8 14 25 26t34 17t19.5 8.5t7.5 9.5q4 5 3 13.5t-3 16.5q-3 13 7.5 19t21.5 6zM679 601
q0 -43 -43 -43h-270q-43 0 -43 43q0 20 12.5 31t30.5 11h270q22 0 32.5 -12.5t10.5 -29.5zM550 516q30 0 56.5 -4t46 -16t31 -34t11.5 -57v-398q0 -27 -5.5 -43.5t-17 -25.5t-28.5 -12t-40 -3h-46h-47q-24 0 -51 -0.5t-60 -0.5t-51.5 6.5t-28 19t-11.5 30t-2 40.5v360
q0 34 2.5 51.5t9.5 34.5q7 18 25.5 28t39.5 15.5t39 7t25 1.5h53h12q6 0 15 -0.5t22 0.5zM445 362q0 14 -10 24t-24 10t-24 -10t-10 -24v-286q0 -14 10 -24t24 -10t24 10t10 24v286z" />
    <glyph glyph-name="uni3447" unicode="&#x3447;" 
d="M934 199h-692q-11 0 -23 -6t-22.5 -18t-17 -28.5t-6.5 -37.5t5.5 -39t14.5 -32t22 -22t28 -8h691q-12 12 -21 27q-8 13 -14.5 31t-6.5 41q0 26 6.5 43t14.5 28q9 12 21 21zM934 -74q0 -17 -22 -17h-731q-34 0 -57 14t-37.5 38.5t-20.5 58.5t-6 73v580q0 77 41 111.5
t117 34.5h34h68h93q51 0 104.5 0.5t104.5 0.5h94h70h35q28 0 49 -11.5t35 -32t21.5 -48.5t7.5 -60v-405q-191 0 -344 1h-128q-64 0 -114.5 0.5t-83.5 0.5h-37q-21 0 -41 -12.5t-36 -34t-26 -50t-10 -59.5q0 -38 10.5 -68.5t27.5 -51.5t37.5 -32.5t40.5 -11.5h683
q8 0 14.5 -4.5t6.5 -14.5zM503 820v-387l77 108l76 -108v387h-153z" />
    <glyph glyph-name="uni3448" unicode="&#x3448;" 
d="M806 25q0 -25 -10 -46.5t-27.5 -38t-41 -26t-50.5 -9.5h-355q-27 0 -50.5 9.5t-41 26t-27.5 38t-10 46.5v670q0 25 10 47t27.5 38.5t41 26t50.5 9.5h355q27 0 50.5 -9.5t41 -26t27.5 -38.5t10 -47v-670zM725 647h-452v-573h452v573zM499 46q-21 0 -36.5 -15t-15.5 -37
q0 -21 15.5 -36.5t36.5 -15.5q22 0 37 15.5t15 36.5q0 22 -15 37t-37 15zM579 732q0 8 -5 12.5t-11 4.5h-127q-5 0 -10.5 -4.5t-5.5 -12.5t5 -12.5t11 -4.5h127q6 0 11 4.5t5 12.5z" />
    <glyph glyph-name="uni3449" unicode="&#x3449;" 
d="M521 538q33 41 70 74q32 27 72.5 49t84.5 19q62 -5 103.5 -29.5t66 -62t33.5 -85t6 -97.5t-17.5 -95.5t-36 -85t-47.5 -73t-52 -60.5q-40 -41 -83.5 -76.5t-83 -61t-72 -40.5t-50.5 -15q-20 -1 -51 14t-68 40.5t-78 60.5t-81 74q-26 25 -56 58t-56.5 72.5t-45.5 85.5
t-21 98t11 97.5t39 81.5t64 60.5t86 34.5q24 5 48 1.5t47 -12t44 -21.5t40 -27q44 -33 84 -79z" />
    <glyph glyph-name="uni344A" unicode="&#x344a;" 
d="M183 731q28 0 47.5 -19t19.5 -47v-51q0 -28 -19.5 -47.5t-47.5 -19.5h-53q-27 0 -46.5 19.5t-19.5 47.5v51q0 28 19.5 47t46.5 19h53zM869 731q27 0 46.5 -19t19.5 -47v-51q0 -28 -19.5 -47.5t-46.5 -19.5h-427q-28 0 -47.5 19.5t-19.5 47.5v51q0 28 19.5 47t47.5 19h427
zM183 420q28 0 47.5 -19.5t19.5 -47.5v-51q0 -27 -19.5 -46.5t-47.5 -19.5h-53q-27 0 -46.5 19.5t-19.5 46.5v51q0 28 19.5 47.5t46.5 19.5h53zM869 420q27 0 46.5 -19.5t19.5 -47.5v-51q0 -27 -19.5 -46.5t-46.5 -19.5h-427q-28 0 -47.5 19.5t-19.5 46.5v51q0 28 19.5 47.5
t47.5 19.5h427zM183 108q28 0 47.5 -19.5t19.5 -46.5v-51q0 -28 -19.5 -47.5t-47.5 -19.5h-53q-27 0 -46.5 19.5t-19.5 47.5v51q0 27 19.5 46.5t46.5 19.5h53zM869 108q27 0 46.5 -19.5t19.5 -46.5v-51q0 -28 -19.5 -47.5t-46.5 -19.5h-427q-28 0 -47.5 19.5t-19.5 47.5v51
q0 27 19.5 46.5t47.5 19.5h427z" />
    <glyph glyph-name="uni344B" unicode="&#x344b;" 
d="M338 12q19 0 36 -7t29.5 -19.5t20 -29.5t7.5 -36t-7.5 -36t-20 -29.5t-29.5 -20t-36 -7.5q-20 0 -37 7.5t-29.5 20t-20 29.5t-7.5 36t7.5 36t20 29.5t29.5 19.5t37 7zM754 10q19 0 36.5 -7t30 -19.5t20 -29.5t7.5 -36t-7.5 -36t-20 -29.5t-30 -20t-36.5 -7.5t-36 7.5
t-29.5 20t-20 29.5t-7.5 36t7.5 36t20 29.5t29.5 19.5t36 7zM922 578q28 0 43.5 -7.5t22 -18.5t6 -23.5t-3.5 -21.5t-13 -37t-21.5 -61.5t-23 -66.5t-18.5 -52q-13 -40 -32.5 -55.5t-48.5 -15.5h-35h-64h-84h-94h-248l14 -90h505q48 0 48 -41q0 -20 -9.5 -34.5t-37.5 -14.5
h-48h-92h-116h-117h-97h-54q-20 0 -33.5 9t-22.5 23.5t-14.5 31.5t-8.5 32q-1 6 -5.5 29t-11 57.5t-14.5 77t-16 85.5q-19 101 -43 225h-75q-15 0 -25 7.5t-16.5 18t-9 22.5t-2.5 22q0 20 13.5 33t36.5 13h21h21h25h34q20 0 32 -6t19 -15t10 -19t5 -17q2 -8 4 -22.5t4 -29.5
q3 -18 6 -38h684zM847 610h-366l132 132q23 23 50.5 23.5t50.5 -22.5z" />
    <glyph glyph-name="uni344C" unicode="&#x344c;" 
d="M534 728q25 0 48 -10t39.5 -27.5t26.5 -40.5t10 -49q0 -38 -19.5 -68t-50.5 -46q-11 -31 -11 -64q0 -37 13.5 -73.5t37 -66t55 -48t67.5 -18.5q31 0 58.5 15t50 38.5t38 53t22.5 58.5q-27 13 -44 39t-17 58q0 22 8 41t22 33t33 22.5t40 8.5t40 -8.5t33 -22.5t22 -33
t8 -41q0 -32 -16.5 -57.5t-42.5 -38.5q-5 -50 -15 -102t-25 -103.5t-35 -99.5t-44 -88q-83 -31 -172 -47.5t-183 -16.5t-182.5 16.5t-172.5 47.5q-24 40 -44 88t-35 99.5t-25.5 103.5t-14.5 102q-26 13 -41.5 38.5t-15.5 57.5q0 22 8 41t21.5 33t32 22.5t39.5 8.5t40 -8.5
t33 -22.5t22 -33t8 -41q0 -33 -17 -59t-44 -38q7 -30 22.5 -59.5t38 -53.5t50 -39t58.5 -15q36 0 67.5 18.5t55.5 48t37.5 66.5t13.5 74q0 35 -14 68q-28 17 -45.5 46.5t-17.5 64.5q0 26 10 49t27 40.5t39.5 27.5t48.5 10z" />
    <glyph glyph-name="uni344D" unicode="&#x344d;" 
d="M1001 38h-125v-58q0 -26 -18 -44t-44 -18h-63q-26 0 -44 18t-18 44v58h-375v-58q0 -26 -18.5 -44t-44.5 -18h-63q-26 0 -44 18t-18 44v58h-126v197q0 56 35.5 87t89.5 35q4 17 12.5 46t18 62.5t20 67t19.5 59.5q27 76 113 76h388q39 0 64 -21.5t35 -50.5l21 -62
q11 -34 22.5 -68t21.5 -63.5t16 -45.5q54 -5 89.5 -36t35.5 -86v-197zM123 167q26 0 44.5 18t18.5 44t-18.5 44.5t-44.5 18.5t-44 -18.5t-18 -44.5t18 -44t44 -18zM775 356l-37 183h-476l-33 -183h546zM875 167q26 0 45 19t19 45q0 27 -19 45.5t-45 18.5q-27 0 -45.5 -18.5
t-18.5 -45.5q0 -26 18.5 -45t45.5 -19z" />
    <glyph glyph-name="uni344E" unicode="&#x344e;" 
d="M314 418l445 2l-214 -538zM365 613l339 -3l60 -131l-440 3zM268 486l-268 112l144 107l172 -89zM0 533l254 -113l273 -534zM823 421l238 123l-501 -655zM818 487l-67 138l153 85l132 -111zM360 679l-58 15l-109 61l128 46h418l127 -53l-122 -59l-41 -10h-343z" />
    <glyph glyph-name="uni344F" unicode="&#x344f;" 
d="M353 426q0 -13 -6.5 -24t-17.5 -17.5t-24 -6.5q-20 0 -34.5 14t-14.5 34t14.5 34t34.5 14q10 0 18.5 -3.5t15 -10t10.5 -15.5t4 -19zM353 426q0 -13 -6.5 -24t-17.5 -17.5t-24 -6.5q-20 0 -34.5 14t-14.5 34t14.5 34t34.5 14q10 0 18.5 -3.5t15 -10t10.5 -15.5t4 -19z
M778 426q0 -20 -14 -34t-34 -14q-10 0 -19 3.5t-15.5 10t-10 15.5t-3.5 19q0 20 14 34t34 14t34 -14t14 -34zM832 -117h-637q-41 0 -69.5 28.5t-28.5 68.5v496q0 40 28.5 69t69.5 29h637q27 0 49.5 -13.5t35.5 -35.5t13 -49v-496q0 -40 -28.5 -68.5t-69.5 -28.5zM195 520
q-19 0 -32 -13t-13 -31v-496q0 -18 13 -31t32 -13h637q12 0 22.5 6t16.5 16t6 22v496q0 12 -6 22.5t-16.5 16t-22.5 5.5h-637zM753 432h-54v221q0 12 -5.5 22.5t-16 16.5t-22.5 6h-283q-9 0 -17.5 -3.5t-14.5 -9.5t-9.5 -14.5t-3.5 -17.5v-221h-53v221q0 41 28.5 69.5
t69.5 28.5h283q40 0 69 -28.5t29 -69.5v-221z" />
    <glyph glyph-name="uni3450" unicode="&#x3450;" 
d="M286 347h-65v-63q0 -23 23 -23h64v64q0 22 -22 22zM295 319v-9h-24v24h9q6 0 9 -0.5t4.5 -4t1.5 -10.5zM258 334v-24h-24v24h24zM234 288v2v2v6h24v-25h-7q-7 0 -10 1t-5 4.5t-2 9.5zM295 273h-24v25h24v-25v0zM176 397v-14q20 0 23 -17v-1l-23 -14v-14q17 11 23 14v-22
v-3v3l-23 -14v-14q2 1 5 3t9 5.5t9 5.5v-1v-7q0 -7 -1 -12t-3.5 -8t-4.5 -5.5t-4.5 -4t-5 -2t-3.5 -1.5h-1v-13h4q2 0 5.5 1t6.5 2.5t6 4t5.5 6t4.5 8t3 11t1 14.5v55q-1 33 -36 34zM295 382v15h-13v-15h-35v15h-12v-15h-14v-13h14v-13h12v13h35v-13h13v13h13v13h-13z
M156 349h-58v34h52v14h-115v-14h50v-34h-56v-13h54q0 -4 -1.5 -8t-5.5 -12.5t-9.5 -15.5t-15.5 -14.5t-22 -11.5v-13q19 4 36 19t26 36q10 -22 28 -36.5t37 -18.5v13q-19 7 -33 22.5t-18 24t-6 15.5h57v13zM340 347v-14h35v-72h14v72h34v14h-83zM555 296l12 29q2 5 6.5 5
t5.5 -5l8 -19h-4q-2 0 -6 -1t-7 -2t-7.5 -3t-7.5 -4zM620 261l-29 71q0 2 -1.5 4.5t-6 6t-10.5 3.5t-10.5 -3.5t-6.5 -6.5l-1 -4l-28 -71h14q15 32 50 32l13 -32h16zM656 275q-8 0 -11.5 3t-3.5 12v56h-14v-14v-49q0 -10 6 -16t16 -6h18v14h-1h-10zM705 275q-8 0 -11.5 3
t-3.5 12v56h-14v-14v-49q0 -5 1.5 -9t4.5 -7t7 -4.5t9 -1.5h18v14h-2h-4h-5zM476 319q5 0 10.5 1t9 2.5t6.5 2.5v-64h14v76q0 7 -5 9t-10 -2q-2 -2 -3.5 -3t-3.5 -2t-3.5 -2t-4.5 -1l-4 -2h-6h-1v0q-14 0 -26 10q-1 1 -2 1.5t-3.5 1t-4.5 -0.5t-3 -2.5t-1.5 -3t-0.5 -3.5
v-15v-30v-31h14v64q11 -6 27 -6h1zM745 268q0 -3 -2 -5t-5 -2q-7 0 -7 7t7 7t7 -7zM888 282q-3 -4 -7.5 -5.5t-10.5 -1.5q-3 0 -6.5 0.5t-6 2t-5.5 4.5q-7 7 -7 22q0 7 2 12.5t5 9.5q7 7 18 7q6 0 10.5 -2t7.5 -5q8 -8 8 -22q0 -2 -0.5 -4.5t-1.5 -4.5v-4q-1 -2 -2 -3l-2 -4
zM905 280q2 5 3 11t1 14q0 19 -11 30t-28 11q-15 0 -26 -9q-3 -2 -5.5 -5.5t-4 -8t-2.5 -9.5t-1 -10q0 -21 11 -32t28 -11q11 0 20.5 5t14.5 14zM961 319q15 0 26 6v-64h14v31v30v15q0 7 -5 9t-10 -2q-12 -10 -25 -10h-1v0q-14 0 -26 10q-5 4 -10 2q-2 -1 -3 -2.5t-1.5 -3
t-0.5 -3.5v-29v-47h14v64q11 -6 27 -6h1zM808 284l-2 -2q-7 -7 -18 -7h-6q-2 0 -4 1t-4 2.5t-4 3.5q-4 3 -5.5 8.5t-1.5 13t1.5 13t5.5 9t8.5 5.5t9.5 2q2 0 4 -1h4q2 -1 3.5 -2t3.5 -2t3 -2q0 -1 0.5 -1.5t1.5 -0.5h16q-2 3 -3.5 6t-4.5 5q-11 11 -28 11q-15 0 -26 -9
q-7 -5 -10 -13.5t-3 -19.5q0 -21 11 -32t28 -11q11 0 20.5 5t13.5 14l2 4h-16z" />
    <glyph glyph-name="uni3451" unicode="&#x3451;" 
d="M613 390q115 -1 349 -5q-1 3 -2 6.5t-1.5 7t-1.5 7t-2 6.5l-2 6l-2 8q-1 3 -1 6q-38 -29 -89 -68t-100 -76.5t-88 -68.5q-4 -2 -6.5 -5t-4 -7t-2 -7.5t0.5 -8.5q15 -48 33 -106.5t37.5 -120.5t33.5 -106q3 2 6 4.5t6 4.5t6 5t6 5t6.5 4.5t6.5 4.5q-51 35 -147 100.5
t-141 97.5q-13 8 -26 0l-285 -202q6 -4 18.5 -13.5t18.5 -14.5q22 75 45 152.5t54 182.5q2 5 0.5 10.5t-4.5 9.5t-8 8q-45 34 -138 103.5t-141 105.5q-3 -9 -7.5 -27t-5.5 -20q106 3 349 10q18 0 24 18q49 145 113 330h-49q12 -32 117 -328q5 -15 19.5 -17.5t24.5 6.5t4 24
q-16 45 -37 105t-42 119t-37 105q-3 8 -10 13t-14.5 5t-14.5 -5t-10 -13v-1v-1l-1 -1v-1v-1l-1 -1v-1v-1l-1 -1v-1l-1 -1v-1v-1l-1 -1v-1v-1l-1 -1v-1v-1l-1 -1v-1v-1l-1 -1v-1v-1l-1 -1v-1v-1l-1 -1v-1v-1l-1 -1v-1v-1l-1 -1v-1v-1l-1 -1v-1v-1l-1 -1v-1v-1l-1 -1v-1v-1
l-1 -1v-1v-1l-1 -1v-1v-1l-1 -1v-1v-1l-1 -1v-1l-1 -1v-1v-1l-1 -1v-1v-1l-1 -1v-1v-1l-1 -1v-1v-1l-1 -1v-1v-1l-1 -1v-1v-1l-1 -1v-1v-1l-1 -1v-1v-1l-1 -1v-1v-1l-1 -1v-1v-1l-1 -1v-1v-1l-1 -1v-1v-1l-1 -1v-1v-1l-1 -1v-1v-1l-1 -1v-1v-1l-1 -1v-1l-1 -1v-1v-1l-1 -1
v-1v-1l-1 -1v-1v-1l-1 -1v-1v-1l-1 -1v-1v-1l-1 -1v-1v-1l-1 -1v-1v-1l-1 -1v-1v-1l-1 -1v-1v-1l-1 -1v-1v-1l-1 -1v-1v-1l-1 -1v-1v-1l-1 -1v-1v-1l-1 -1v-1v-1l-1 -1v-1v-1l-1 -1v-1v-1l-1 -1v-1l-1 -1v-1v-1l-1 -1v-1v-1l-1 -1v-1v-1l-1 -1v-1v-1l-1 -1v-1v-1l-1 -1v-1
v-1l-1 -1v-1v-1l-1 -1v-1v-1l-1 -1v-1v-1l-1 -1v-1v-1l-1 -1v-1v-1l-1 -1v-1v-1l-1 -1v-1v-1l-1 -1v-1v-1l-1 -1v-1v-1l-1 -1v-1v-1l-1 -1v-1l-1 -1v-1v-1l-1 -1v-1v-1l-1 -1v-1v-1l-1 -1v-1v-1l-1 -1v-1v-1l-1 -1v-1v-1l-1 -1v-1v-1l-1 -1v-1v-1l-1 -1v-1v-1l-1 -1v-1v-1
l-1 -1v-1v-1l-1 -1v-1v-1l-1 -1v-1v-1l-1 -1v-1v-1l-1 -1v-1v-1l-1 -1v-1v-1l-1 -1v-1l-1 -1v-1v-1l-1 -1v-1v-1l-1 -1v-1v-1l-1 -1v-1v-1l-1 -1v-1v-1l-1 -1v-1v-1l-1 -1v-1v-1l-1 -1v-1v-1l-1 -1v-1v-1l-1 -1v-1v-1l-1 -1v-1v-1l-1 -1v-1v-1l-1 -1v-1v-1l-1 -1v-1v-1
l-1 -1v-1v-1l-1 -1v-1l-1 -1v-1v-1l-1 -1v-1v-1l-1 -1v-1v-1l-1 -1v-1v-1l-1 -1v-1v-1l-1 -1v-1v-1l-1 -1v-1v-1l-1 -1v-1v-1l-1 -1v-1v-1l-1 -1v-2q5 4 13.5 10.5t10.5 8.5q-244 -7 -349 -10q-19 0 -23 -18t11 -28q189 -142 279 -209q-1 3 -2.5 7t-3 7t-3 7t-2.5 7
q-17 -55 -50 -166.5t-49 -168.5q-5 -15 9 -26.5t28 -1.5q158 112 284 201q-9 -4 -13.5 -4t-8.5 2q4 -3 10 -6q14 -10 32 -23q13 -8 32 -21t36 -25t31 -22q77 -52 144 -98q14 -10 28 1.5t9 26.5q-13 43 -48.5 157t-54.5 176q-4 -8 -6.5 -14.5t-5.5 -13.5q156 120 277 213
q15 11 11 28.5t-24 18.5q-227 3 -349 4q-15 1 -21.5 -11.5t0 -25.5t21.5 -13z" />
    <glyph glyph-name="uni3452" unicode="&#x3452;" 
d="M989 475q-36 51 -105.5 149.5t-77.5 109.5q-4 7 -11 11t-14 4h-585q-12 0 -20 -8q0 -1 -1 -1q-2 -3 -4 -5q-22 -36 -51 -83.5t-58 -94t-51 -82.5q-11 -18 3 -34l2 -2q77 -98 228 -291.5t225 -288.5q9 -12 22 -10q5 0 10 2.5t9 7.5q36 44 209 255.5t265 324.5q1 1 2 3
q14 17 3 33zM907 489h-180q3 9 7 18.5t7 19t6.5 19t7 18.5t7.5 18l6 20q4 9 7.5 18t7 18.5t6.5 18.5q16 -23 37.5 -53.5t43 -60.5t37.5 -54zM490 677q12 -18 128 -188h-261q102 144 133 188zM644 431l-1 -1v-1l-1 -1v-1v-1l-1 -1v-1v-1l-1 -1v-1v-1l-1 -1v-1l-1 -1v-1v-1
l-1 -1v-1v-1l-1 -1v-1l-1 -1v-1v-1l-1 -1v-1v-1l-1 -1v-1v-1l-1 -1v-1l-1 -1v-1v-1l-1 -1v-1v-1l-1 -1v-1v-1l-1 -1v-1l-1 -1v-1v-1l-1 -1v-1v-1l-1 -1v-1l-1 -1v-1v-1l-1 -1v-1v-1l-1 -1v-1v-1l-1 -1v-1l-1 -1v-1v-1l-1 -1v-1v-1l-1 -1v-1v-1l-1 -1v-1l-1 -1v-1v-1l-1 -1
v-1v-1l-1 -1v-1l-1 -1v-1v-1l-1 -1v-1v-1l-1 -1v-1v-1l-1 -1v-1l-1 -1v-1v-1l-1 -1v-1v-1l-1 -1v-1v-1l-1 -1v-1l-1 -1v-1v-1l-1 -1v-1v-1l-1 -1v-1l-1 -1v-1v-1l-1 -1v-1v-1l-1 -1v-1v-1l-1 -1v-1l-1 -1v-1v-1l-1 -1v-1v-1l-1 -1v-1v-1l-1 -1v-1l-1 -1v-1v-1l-1 -1v-1v-1
l-1 -1v-1v-1l-1 -1v-1l-1 -1v-1v-1l-1 -1v-1v-1l-1 -1v-1l-1 -1v-1v-1l-1 -1v-1v-1l-1 -1v-1v-1l-1 -1v-1l-1 -1v-1v-1l-1 -1v-1v-1l-1 -1v-1v-1l-1 -1v-1l-1 -1v-1v-1l-1 -1v-1v-1l-1 -1v-1l-1 -1v-1v-1l-1 -1v-1v-1l-1 -1v-1v-1l-1 -1v-1l-1 -1v-1v-1l-1 -1v-1v-1l-1 -1
v-1v-1l-1 -1v-1l-1 -1v-1v-1l-1 -1v-1v-1l-1 -1v-1l-1 -1v-1v-1l-1 -1v-1v-1l-1 -1v-1v-1l-1 -1v-1l-1 -1v-1v-1l-1 -1v-1v-1l-1 -1v-1v-1l-1 -1v-1l-1 -1v-1v-1l-1 -1v-1v-1l-1 -1v-1l-1 -1v-1v-1l-1 -1v-1v-1l-1 -1v-1v-1l-1 -1v-1l-1 -1v-1v-1l-1 -1v-1v-1l-1 -1v-1v-1
l-1 -1v-1l-1 -1v-1v-1l-1 -1v-1v-1l-1 -1v-1l-1 -1v-1v-1l-1 -1v-1v-1l-1 -1v-1v-1l-1 -1v-1l-1 -1v-1v-1l-1 -1v-1v-1l-1 -1v-1v-1l-1 -1v-1l-1 -1v-1v-1l-1 -1v-1v-1l-1 -1v-1l-1 -1v-1v-1l-1 -1v-1v-1l-1 -1v-1v-1l-1 -1v-1l-1 -1v-1v-1l-1 -1v-1v-1l-1 -1v-1v-1l-1 -1
v-1l-1 -1v-1v-1l-1 -1v-1v-1l-1 -1v-1l-1 -1v-1v-1l-1 -1v-1v-1l-1 -1v-1v-1l-1 -1v-1l-1 -1v-1v-1l-1 -1v-1v-1l-1 -1v-1v-1l-1 -1v-1l-1 -1v-1v-1l-1 -1v-1v-1l-1 -1v-1l-1 -1v-1v-1l-1 -1v-1v-1l-1 -1v-1v-1l-1 -1v-1l-1 -1v-1v-1l-1 -1v-1v-1l-1 -1v-1v-1l-1 -1v-1
l-1 -1v-1v-1l-1 -1v-1v-1l-1 -1v-1v-1l-1 -1v-1l-1 -1v-1v-1l-1 -1v-1v-1l-1 -1v-1l-1 -1v-1v-1l-1 -1v-1v-1l-1 -1v-1v-1l-1 -1v-1l-1 -1v-1l-1 -2q-92 261 -151 418h305zM673 512q-14 21 -31.5 46.5t-28 40.5t-33.5 49t-29 43h188q-9 -26 -21 -57.5t-24 -64.5t-21 -57z
M306 518q-34 90 -67 173h189q-59 -84 -122 -173zM191 655q11 -27 21.5 -55t21 -55.5t21.5 -55.5h-166zM277 431q60 -163 156 -432q-199 256 -337 432h181zM706 431h196l-1 -1l-1 -1v-1l-1 -1l-1 -1l-1 -1l-1 -1v-1l-1 -1l-1 -1l-1 -1l-1 -1l-1 -1v-1l-1 -1l-1 -1l-1 -1
l-1 -1v-1l-1 -1l-1 -1l-1 -1l-1 -1l-1 -1v-1l-1 -1l-1 -1l-1 -1l-1 -1v-1l-1 -1l-1 -1l-1 -1l-1 -1l-1 -1v-1l-1 -1l-1 -1l-1 -1l-1 -1v-1l-1 -1l-1 -1l-1 -1l-1 -1l-1 -1v-1l-1 -1l-1 -1l-1 -1l-1 -1v-1l-1 -1l-1 -1l-1 -1l-1 -1l-1 -1v-1l-1 -1l-1 -1l-1 -1l-1 -1v-1
l-1 -1l-1 -1l-1 -1l-1 -1l-1 -1v-1l-1 -1l-1 -1l-1 -1l-1 -1v-1l-1 -1l-1 -1l-1 -1l-1 -1l-1 -1v-1l-1 -1l-1 -1l-1 -1l-1 -1v-1l-1 -1l-1 -1l-1 -1l-1 -1l-1 -1v-1l-1 -1l-1 -1l-1 -1l-1 -1v-1l-1 -1l-1 -1l-1 -1l-1 -1v-1l-1 -1l-1 -1l-1 -1l-1 -1l-1 -1v-1l-1 -1l-1 -1
l-1 -1l-1 -1v-1l-1 -1l-1 -1l-1 -1l-1 -1l-1 -1v-1l-1 -1l-1 -1l-1 -1l-1 -1v-1l-1 -1l-1 -1l-1 -1l-1 -1l-1 -1v-1l-1 -1l-1 -1l-1 -1l-1 -1v-1l-1 -1l-1 -1l-1 -1l-1 -1l-1 -1v-1l-1 -1l-1 -1l-1 -1l-1 -1v-1l-1 -1l-1 -1l-1 -1l-1 -1l-1 -1v-1l-1 -1l-1 -1l-1 -1l-1 -1
v-1l-1 -1l-1 -1l-1 -1l-1 -1l-1 -1v-1l-1 -1l-1 -1l-1 -1l-1 -1v-1l-1 -1l-1 -1l-1 -1l-1 -1l-1 -1v-1l-1 -1l-1 -1l-1 -1l-1 -1v-1l-1 -1l-1 -1l-1 -1l-1 -1l-1 -1v-1l-1 -1l-1 -1l-1 -1l-1 -1v-1l-1 -1l-1 -1l-1 -1l-1 -1v-1l-1 -1l-1 -1l-1 -1l-1 -1l-1 -1v-1l-1 -1
l-1 -1l-1 -1l-1 -1v-1l-1 -1l-1 -1l-1 -1l-1 -1l-1 -1v-1l-1 -1l-1 -1l-1 -1l-1 -1v-1l-1 -1l-1 -1l-1 -1l-1 -1l-1 -1v-1l-1 -1l-1 -1l-1 -1l-1 -1v-1l-1 -1l-1 -1l-1 -1l-1 -1l-1 -1v-1l-1 -1l-1 -1l-1 -1l-1 -1v-1l-1 -1l-1 -1l-1 -1l-1 -1l-1 -1v-1l-1 -1l-1 -1l-1 -1
l-1 -1v-1l-1 -1l-1 -1l-1 -1l-1 -1l-1 -1v-1l-1 -1l-1 -1l-1 -1l-1 -1v-1l-1 -1l-1 -1l-1 -1l-1 -1l-1 -1v-1l-1 -1l-1 -1l-1 -1l-1 -1v-1l-1 -1l-1 -1l-1 -1l-1 -1l-1 -1v-1l-1 -1l-1 -1l-1 -1l-1 -1v-1l-1 -1l-1 -1l-1 -1l-1 -1l-1 -1v-1l-1 -1l-1 -1l-1 -1l-1 -1v-1
l-1 -1l-1 -1l-1 -1l-1 -1v-1l-1 -1l-1 -1l-1 -1l-1 -1l-1 -1v-1l-1 -1l-1 -1l-1 -1l-1 -1v-1l-1 -1l-1 -1l-1 -1l-1 -1l-1 -1v-1l-1 -1l-1 -1l-1 -1l-1 -1v-1l-1 -1l-1 -1l-1 -1l-1 -1l-1 -1v-1l-1 -1l-1 -1l-1 -1l-1 -1v-1l-1 -1l-1 -1l-1 -1l-1 -1l-1 -1v-1l-1 -1l-1 -1
l-1 -1l-1 -1v-1l-1 -1l-1 -1l-1 -1l-1 -1l-1 -1v-1l-1 -1l-1 -1l-1 -1l-1 -1v-1l-1 -1l-1 -1l-1 -1l-1 -1l-1 -1v-1l-1 -1l-1 -1l-1 -1l-1 -1v-1l-1 -1l-1 -1l-1 -1l-1 -1l-1 -1v-1l-1 -1l-1 -1l-1 -1l-1 -1v-1l-1 -1l-1 -1l-1 -1l-1 -1l-1 -1v-1l-1 -1l-1 -1l-1 -1l-1 -1
v-1l-1 -1l-1 -1l-1 -1l-1 -1v-1l-1 -1l-1 -1l-1 -1l-1 -1l-1 -1v-1l-1 -1l-1 -1l-1 -1l-1 -1l-1 -2l-1 -1l-1 -1v-1l-1 -1l-1 -1l-1 -1l-1 -1v-1l-1 -1l-1 -1l-1 -1l-1 -1l-1 -1v-1l-1 -1l-1 -1l-1 -1l-1 -1v-1l-1 -1l-1 -1l-1 -1l-1 -1l-1 -1v-1l-1 -1l-1 -1l-1 -1l-1 -1
v-1l-1 -1l-1 -1l-1 -1q41 111 160 436z" />
    <glyph glyph-name="uni3453" unicode="&#x3453;" 
d="M171 475q-44 0 -81.5 21.5t-59 59t-21.5 81.5q0 19 4 37t12 34t19 30t25.5 25t30 19t34 12.5t37.5 4.5q33 0 63 -13t51.5 -34.5t34.5 -51.5t13 -63q0 -67 -47.5 -114.5t-114.5 -47.5zM171 733q-40 0 -68 -28t-28 -68q0 -8 1 -15.5t3.5 -15t6 -14t8 -12.5t9.5 -11t11 -9.5
t12.5 -8t14 -6t15 -3.5t15.5 -1q40 0 68 28t28 68t-28 68t-68 28zM498 475q-27 0 -51.5 8t-44.5 23t-35 35t-23.5 44.5t-8.5 51.5q0 67 47.5 114.5t115.5 47.5q43 0 80.5 -21.5t59.5 -59t22 -81.5q0 -67 -47.5 -114.5t-114.5 -47.5zM498 733q-27 0 -49 -13t-35 -35t-13 -48
t13 -48.5t35 -35t49 -12.5q39 0 67.5 28t28.5 68t-28.5 68t-67.5 28zM824 475q-44 0 -81 21.5t-59 59t-22 81.5t22 81.5t59 59t81 21.5q27 0 51.5 -8t44.5 -23t35 -35t23 -45t8 -51q0 -67 -47.5 -114.5t-114.5 -47.5zM824 733q-40 0 -68 -28t-28 -68t28 -68t68 -28
q20 0 37.5 7.5t30.5 20.5t20.5 30.5t7.5 37.5q0 40 -28 68t-68 28zM171 142q-67 0 -114.5 47.5t-47.5 114.5t47.5 114.5t114.5 47.5q44 0 81.5 -21.5t59 -59t21.5 -81.5t-21.5 -81t-59 -59t-81.5 -22zM171 401q-26 0 -48.5 -13t-35 -35.5t-12.5 -48.5q0 -39 28 -67.5
t68 -28.5t68 28.5t28 68t-28 68t-68 28.5zM498 142q-22 0 -43.5 6t-39 16.5t-32.5 25.5t-25.5 32.5t-16.5 38.5t-6 43q0 67 47.5 114.5t115.5 47.5q43 0 80.5 -21.5t59.5 -59t22 -81.5q0 -67 -47.5 -114.5t-114.5 -47.5zM498 401q-14 0 -26 -3.5t-23 -10t-19.5 -15.5
t-15 -19.5t-10 -23t-3.5 -25.5q0 -39 28.5 -67.5t68 -28.5t68 28.5t28.5 68t-28.5 68t-67.5 28.5zM824 142q-79 0 -128 63q-34 44 -34 99q0 67 47.5 114.5t114.5 47.5t114.5 -47.5t47.5 -114.5t-47.5 -114.5t-114.5 -47.5zM824 401q-40 0 -68 -28.5t-28 -68t28 -68t68 -28.5
t68 28.5t28 68t-28 68t-68 28.5zM171 -190q-67 0 -114.5 47.5t-47.5 114.5t47.5 114.5t114.5 47.5t114.5 -47.5t47.5 -114.5q0 -27 -8 -51.5t-23 -44.5t-35 -35t-45 -23t-51 -8zM171 68q-40 0 -68 -28t-28 -68t28 -68t68 -28t68 28t28 68t-28 68t-68 28zM498 -190
q-44 0 -81.5 21.5t-59.5 59t-22 81.5q0 67 47.5 114.5t115 47.5t115 -47.5t47.5 -114.5t-47.5 -114.5t-114.5 -47.5zM498 68q-40 0 -68.5 -28t-28.5 -68q0 -20 8 -37.5t20.5 -30.5t30.5 -20.5t38 -7.5q26 0 48 12.5t35 35t13 48.5q0 19 -8 37t-20.5 31t-30.5 20.5t-37 7.5z
M824 -190q-67 0 -114.5 47.5t-47.5 114.5t47.5 114.5t114.5 47.5q44 0 81.5 -22t59 -59t21.5 -81q0 -67 -47.5 -114.5t-114.5 -47.5zM824 68q-40 0 -68 -28t-28 -68t28 -68t68 -28t68 28t28 68t-28 68t-68 28z" />
    <glyph glyph-name="uni3454" unicode="&#x3454;" 
d="M375 776h-253q-44 0 -75.5 -31.5t-31.5 -75.5v-721q0 -44 31.5 -75.5t75.5 -31.5h253q22 0 42 8.5t34 23t22.5 34t8.5 41.5v721q0 44 -31 75.5t-76 31.5zM424 -52q0 -20 -14.5 -34.5t-34.5 -14.5h-253q-8 0 -15.5 2.5t-13.5 7t-10.5 10.5t-7 13.5t-2.5 15.5v721
q0 20 14.5 34.5t34.5 14.5h253q20 0 34.5 -14.5t14.5 -34.5v-721zM882 776h-253q-22 0 -42 -8.5t-34.5 -23t-23 -34t-8.5 -41.5v-721q0 -44 31.5 -75.5t76.5 -31.5h253q44 0 75.5 31.5t31.5 75.5v721q0 44 -31.5 75.5t-75.5 31.5zM931 -52q0 -20 -14.5 -34.5t-34.5 -14.5
h-253q-21 0 -35 14.5t-14 34.5v321h351v-321zM931 328h-351v341q0 20 14 34.5t35 14.5h253q20 0 34.5 -14.5t14.5 -34.5v-341zM112 679h273v-59h-273v59zM112 581h273v-58h-273v58zM112 484h273v-59h-273v59zM659 435q-7 0 -13 -2.5t-10.5 -7.5t-7.5 -11t-3 -13t3 -13.5
t7.5 -11t10.5 -7t13 -2.5q6 0 11 1.5t9.5 5t7.5 7.5t5 9t2 11q0 5 -1.5 9t-3.5 8t-5.5 7t-7 5.5t-8 3.5t-9.5 1zM659 153q10 0 17.5 4.5t12.5 12t5 17t-5 17.5t-12.5 12.5t-17.5 4.5q-4 0 -8.5 -1.5t-8.5 -3.5t-7 -5t-5 -7t-3.5 -8.5t-1.5 -8.5q0 -15 10 -24.5t24 -9.5z" />
    <glyph glyph-name="uni3455" unicode="&#x3455;" 
d="M8 367v-172q0 -35 7 -66.5t20.5 -56t29.5 -45.5t36 -37t38.5 -28.5t39 -22t34.5 -15t28 -9.5v-69h520v69q25 7 49.5 17.5t59.5 34t61 53.5t45 78.5t19 106.5v162h-987zM941 205q0 -32 -7 -61t-18.5 -50.5t-27.5 -40.5t-32 -31.5t-34.5 -23.5t-33 -17t-29 -10.5t-20 -6
t-9.5 -2.5l-22 -4v-58h-413v58l-22 4q-6 1 -15 3.5t-30.5 10.5t-41.5 19t-43.5 30t-41 41.5t-29 56t-11.5 72.5v28h880v-18zM941 259h-880v54h880v-54zM420 690h557v-54h-557v54zM25 690h54v-54h-54v54zM25 582h54v-54h-54v54zM420 582h557v-54h-557v54zM89 390
q38 8 57.5 32.5t22.5 48.5v203q0 8 3 14.5t7 11t9 8t10 5.5t8.5 3t4.5 1v54q-18 0 -39 -9.5t-39 -33t-18 -54.5v-198q-5 -27 -37 -34zM197 390q38 8 57.5 32.5t22.5 48.5v203q0 15 10 25.5t18.5 14t13.5 3.5v54q-31 0 -63.5 -26t-32.5 -71v-198q-6 -27 -37 -34zM305 390
q26 5 44.5 21t26 31t8.5 29v203q0 8 3 14.5t7.5 11t9.5 8t9.5 5.5t8 3t5.5 1v54q-31 0 -63.5 -26t-32.5 -71v-198q-6 -27 -37 -34z" />
    <glyph glyph-name="uni3456" unicode="&#x3456;" 
d="M49 382l6 -4h458l-108 353l-1 2q-3 10 -9 21t-22 24.5t-34 13.5l-15 -2q-14 -5 -22 -16t-9.5 -19t-2.5 -19q-1 -9 -2 -12q-2 2 -7 6q-4 5 -6 7t-7 6t-8.5 6t-9.5 4t-11 2q-3 0 -6 -0.5t-5 -1.5l-6 -2q-2 -1 -5 -2q-29 -17 -20 -63v-4q0 -1 0.5 -3.5t0.5 -3.5q-1 0 -2 0.5
t-2 1.5q-18 6 -30 6h-5q-3 0 -6.5 -1t-7 -2.5t-7 -3.5t-6.5 -6l-8 -7q-26 -30 3 -71q3 -5 5 -7q-2 1 -5 1q-12 4 -20 4q-23 0 -37 -22q-21 -32 15 -70l8 -8q-3 -1 -10 0q-4 1 -7 1h-6q-18 0 -29 -8t-16 -20q-4 -7 -5.5 -15t-1.5 -15t2 -13.5t5 -12t7 -10.5t8.5 -8.5
t8.5 -6.5zM70 440q2 0 3.5 -0.5t4.5 -0.5q4 0 7.5 -0.5t6.5 -0.5q31 0 47 26q20 31 -16 69l-1 1l-1 1q3 -1 6 -1.5t6 -0.5q12 0 22.5 6t18.5 17q22 28 -5 66q-1 2 -2 3t-2 2.5t-1 2.5l1 1v1q2 0 10 -3q17 -7 28 -7q17 0 30 11.5t16 29t-1 28.5q20 -21 41 -21q10 0 19 4
q29 13 33 57q0 5 1 7l8 -10q4 -6 6 -13l87 -285h-371q-3 4 -2 10zM284 -21q-35 0 -60 -25t-25 -60t25 -60t60 -25q23 0 43 11.5t31 31t11 42.5t-11 42.5t-31 31t-43 11.5zM284 -140q-3 0 -6.5 1t-6.5 2t-5.5 3t-5 4.5t-4.5 5t-3 5.5t-2 6.5t-1 6.5q0 9 5 17t12.5 12.5
t16.5 4.5q4 0 8 -1t7 -2.5t6 -4t5.5 -5.5t4 -6t2.5 -7t1 -8q0 -9 -4.5 -17t-12.5 -12.5t-17 -4.5zM567.5 -21q-35.5 0 -60.5 -25t-25 -60t25 -60t60.5 -25t60.5 25t25 60t-25 60t-60.5 25zM568 -140q-10 0 -17.5 4.5t-12 12.5t-4.5 17q0 14 10 24t24 10q6 0 12.5 -3t11 -7.5
t7 -10.5t2.5 -13t-2.5 -13t-7 -10.5t-11 -7.5t-12.5 -3zM965 681q-64 63 -130 29q-11 -5 -21.5 -17t-16.5 -22t-15 -27t-13 -23q-57 -94 -154 -260h-584l3 -28q7 -66 46 -143q96 -187 305 -205q22 -2 44 -2q81 0 147 25t106.5 63t68.5 87t39.5 92.5t13.5 83.5l2 27h-131
q23 40 45 77t43 73q40 68 68 114q14 22 26.5 33t31 9.5t39.5 -22.5q11 -11 25 -6.5t17.5 17.5t-5.5 25zM429 34q-41 0 -77.5 7t-65 19t-53.5 29t-43.5 35t-34 39.5t-26 41t-18.5 40t-12.5 35.5t-7.5 30h659q-3 -20 -8 -39.5t-16.5 -48t-27 -53t-40.5 -50t-56 -43.5t-76 -30
t-97 -12z" />
    <glyph glyph-name="uni3457" unicode="&#x3457;" 
d="M733 35h-484v668h484v-668zM299 85h384v568h-384v-568zM536 -48q0 -17 -12 -29t-29 -12q-12 0 -21 5.5t-14.5 15t-5.5 21t5.5 20.5t14.5 14.5t20.5 5.5t21 -5.5t15 -14.5t5.5 -21zM732 -182h-481q-14 0 -27 4t-23.5 12t-18.5 18.5t-12 23.5t-4 27v798q0 35 25 60t60 25
h481q35 0 60 -25t25 -60v-798q0 -35 -25 -60t-60 -25zM251 736q-10 0 -18 -4.5t-12.5 -12.5t-4.5 -18v-798q0 -15 10 -25t25 -10h481q9 0 17 4.5t13 12.5t5 18v798q0 10 -5 18t-13 12.5t-17 4.5h-481z" />
    <glyph glyph-name="uni3458" unicode="&#x3458;" 
d="M314 429q0 -15 -7.5 -28t-20 -20.5t-27.5 -7.5q-9 0 -17.5 3t-15.5 8t-12 12t-8 15.5t-3 17.5q0 22 16.5 38.5t39.5 16.5q15 0 27.5 -7.5t20 -20t7.5 -27.5zM314 429q0 -15 -7.5 -28t-20 -20.5t-27.5 -7.5q-9 0 -17.5 3t-15.5 8t-12 12t-8 15.5t-3 17.5q0 22 16.5 38.5
t39.5 16.5q15 0 27.5 -7.5t20 -20t7.5 -27.5zM799 429q0 -15 -7 -28t-20 -20.5t-28 -7.5q-23 0 -39 16.5t-16 39t16 39t39 16.5t39 -16.5t16 -38.5zM861 -192h-728q-46 0 -79 32.5t-33 78.5v567q0 46 33 78.5t79 32.5h728q46 0 78.5 -32.5t32.5 -78.5v-567
q0 -30 -14.5 -55.5t-40.5 -40.5t-56 -15zM133 536q-21 0 -36 -14.5t-15 -35.5v-567q0 -21 15 -36t36 -15h728q14 0 25.5 7t18.5 18.5t7 25.5v567q0 6 -1.5 11.5t-4 10.5t-6 9.5t-8 8t-9.5 6t-10.5 3.5t-11.5 1h-728zM770 435h-61v253q0 10 -4 19.5t-10.5 16.5t-16 11
t-19.5 4h-324q-14 0 -25.5 -7t-18.5 -18.5t-7 -25.5v-253h-60v253q0 46 32.5 78.5t78.5 32.5h324q46 0 78.5 -32.5t32.5 -78.5v-253z" />
    <glyph glyph-name="uni3459" unicode="&#x3459;" 
d="M646 302l63 236l-116 110l-96 -72l-98 73l-115 -111l71 -236l-341 -277l139 -142l121 105l107 -103l119 103l113 -104l113 106l110 -107l152 141zM403 589l94 -70l92 69l69 -64l-56 -207h-203l-63 207zM726 54l-114 -107l-111 103l-119 -103l-106 103l-120 -104l-74 75
l308 250h221l307 -249l-81 -76zM427 674q3 0 6 1t5 3l4 2q2 2 3.5 4.5t2 5.5t0.5 6q0 8 -6 14.5t-15 6.5t-15 -6.5t-6 -15t6 -15t15 -6.5zM493 674q6 0 11 3t7.5 8t2.5 11q0 4 -1.5 8t-4.5 7t-7 4.5t-8 1.5q-9 0 -15 -6.5t-6 -15t6 -15t15 -6.5zM559 674q18 5 21 22
q0 8 -6 14.5t-15 6.5q-3 0 -5 -1l-6 -2q-2 -1 -4 -3t-3.5 -4.5t-2 -5.5t-0.5 -5q0 -9 6 -15.5t15 -6.5z" />
    <glyph glyph-name="uni345A" unicode="&#x345a;" 
d="M425 8q-36 0 -47 21q-1 0 -3 0.5t-4 0t-5 -0.5h-4q-14 -21 -46 -21h-6h-6h-6l-14 1q-35 1 -45 27h-13q-20 -17 -65 -17q-39 0 -56 20q-5 5 -8 11q-14 1 -24 4t-17 6q-19 2 -26.5 25.5t-10.5 63.5q-4 64 27.5 98t78.5 39q21 3 50 3q30 0 60 -2q45 4 108 45t111 96.5
t49 96.5q0 33 11 55t27 31t27.5 12t22.5 3q27 0 49 -11l3 -1q15 -8 27 -13t38.5 -11.5t51.5 -6.5q30 0 59 8q17 5 32.5 7.5t29 2.5t25.5 -2.5t20.5 -6.5t14 -8.5t9.5 -9.5q9 -11 13 -24t1 -27q-4 -25 1 -54q30 -59 37 -156l2 -21q8 -26 7 -74t-6 -68q-8 -38 -8 -71
q0 -23 -14.5 -35.5t-34.5 -12.5h-1h-16h-41q-24 0 -49 0.5t-47 0.5h-28q-22 0 -35 11.5t-16 23.5l-1 5l-1 53q-5 2 -13 3q-15 2 -38.5 -11.5t-41.5 -30.5q-26 -45 -118 -52q-8 -16 -21.5 -20.5t-42.5 -5.5h-6h-4h-3zM414 50q6 -1 16 -1h7q25 1 28 3v1l2 6l4 16h16q16 0 35 3
t38 11t24 19l2 4l3 2q9 9 23 19.5t43 24.5t51 11q12 -2 21 -5t15 -8.5t10 -11.5q6 -12 2 -24l1 -43q1 -1 2 -1.5t3.5 -1t5.5 -0.5q5 0 18 -0.5t30 -0.5h34h36h32q15 0 23 -1h9q5 0 6 1.5t1 5.5q0 38 10 80q4 18 4.5 60.5t-2.5 52.5q-3 6 -4.5 13t-2.5 25q-1 25 -3 42
t-9.5 47t-20.5 53l-1 3l-1 3q-7 35 -1 71q1 10 -5 18q-20 23 -89 4q-8 -2 -17 -4t-17.5 -3t-17.5 -2t-18 -1q-65 0 -136 36l-2 1q-13 7 -31 7q-3 0 -5.5 -0.5t-6.5 -1t-7.5 -2t-7.5 -4t-7.5 -7.5t-6 -11t-4.5 -15t-2 -20q-1 -39 -33.5 -87.5t-79 -89t-100 -69.5t-94.5 -33
h-2h-2q-4 0 -8.5 0.5t-20 1t-29.5 0.5h-17q-8 0 -15 -0.5t-14 -1.5q-12 -1 -23 -5.5t-23 -14t-18 -28.5t-5 -45q1 -14 2.5 -25t3 -16.5t2.5 -9.5l5 -3v0q14 -7 42 -8l26 -1l-6 -22q0 -1 0.5 -1.5t2 -1.5t3.5 -1.5t5 -1t6.5 -1t6.5 -0.5q28 1 38 7l3 9l14 1q2 0 13 1
q7 0 13.5 -0.5t12.5 -1.5q17 -3 24 -23v-1q3 -1 8.5 -1.5t14.5 -0.5q11 -1 15.5 -1t7 0.5t4 1t2 1.5t1.5 4l4 10l11 2q14 3 28 3q10 0 17.5 -2t13.5 -6q4 -3 6.5 -6.5t3.5 -6.5zM561 347q0 -12 -8 -19.5t-19 -7.5q-6 0 -11 2t-8.5 5.5t-5.5 8.5t-2 10.5t2 10.5t5.5 8.5
t8.5 6t11 2.5q7 0 13 -4t10 -10t4 -13zM622 429q0 -11 -8 -19t-19 -8t-19 8t-8 19t8 19t19 8q7 0 13.5 -4t10 -10t3.5 -13zM483 289q0 -3 -0.5 -6t-2 -5.5t-3.5 -5t-4 -4.5t-5 -3.5t-6 -2t-6 -0.5q-5 0 -9 1.5t-7.5 4t-6 6t-4 7.5t-1.5 8q0 12 8.5 20t19.5 8t19 -8t8 -20z
" />
    <glyph glyph-name="uni345B" unicode="&#x345b;" 
d="M294 412v-93q0 -11 3.5 -18.5t11 -11.5t19.5 -4h96v94q0 33 -33 33h-97zM313 393h37v-35h-37v26v9zM350 303h-11q-15 0 -20.5 4t-5.5 18v15h37v-37zM405 303h-37v37h37v-37v0zM405 370v-12h-37v35h13q11 0 14.5 -0.5t6.5 -5.5t3 -17zM227 487v-20q29 -1 34 -25v-3
l-34 -20v-21q25 16 34 21v-33v-4v3l-34 -20v-21q25 16 35 21v-2v-10q0 -10 -2 -17.5t-5 -12.5t-7 -8.5t-7.5 -5.5t-6.5 -3t-5 -1l-2 -1v-20q7 0 14.5 2.5t17.5 9t16 21.5t6 38v81q-2 50 -54 51zM314 427h19v18h52v-18h19v18h20v20h-20v22h-19v-22h-52v22h-19v-22h-20v-20h20
v-18zM101 366q3 -8 8 -15.5t10.5 -14.5t11.5 -13t12.5 -11.5t13 -10t13.5 -7.5t14 -5.5t13 -4.5v21q-22 7 -39.5 21.5t-26.5 30t-13 24.5t-6 15h86v20h-87v51h78v20h-172v-20h74v-51h-83v-20h81q-2 -7 -5.5 -16t-12 -24.5t-25 -29.5t-38.5 -22v-20q11 3 22.5 8.5t21.5 13
t19.5 17t16.5 21t13 22.5zM8 226h51v-107h22v107h51v21h-124v-21zM355.5 246q-8.5 0 -15.5 -5t-9 -11l-3 -5l-42 -106h22q6 13 16 23t18.5 14.5t18.5 7t14 3t8 0.5l18 -48h24l-42 106q-1 3 -3 6.5t-9 9t-15.5 5.5zM328 171l18 44q1 0 1.5 1.5t2.5 3t5 1.5q7 0 10 -6l10 -29
q-3 0 -7 -0.5t-11 -2t-15 -5t-14 -7.5zM457 162v84h-22v-21v-73q0 -15 9.5 -24t24.5 -9h26v21h-16q-8 0 -12.5 1.5t-7 6t-2.5 14.5zM530 162v84h-21v-21v-73q0 -15 9 -24t24 -9h26v21h-2h-5h-9q-12 0 -17 4t-5 18zM263 246q-7 3 -15 -4q-4 -3 -7.5 -5t-8 -4.5t-10 -3.5
t-12.5 -1h-1v0q-21 0 -38 14q-8 7 -15 4q-8 -3 -8 -14v-43v-70h21v96q17 -9 40 -9h1q23 0 39 9v-96h22v113q0 11 -8 14zM601 140q-4 0 -7 -3t-3 -7q0 -3 0.5 -5t2 -3t3.5 -2t4 -1q5 0 8 3t3 8q0 2 -1 4t-3 3l-2 2q-2 1 -5 1zM799 246q-6 0 -11.5 -1t-10.5 -2.5t-9.5 -4
t-8.5 -5.5q-19 -17 -19 -50q0 -31 16 -48q8 -8 19 -12t24 -4q16 0 30 7.5t21 20.5q3 7 5 16.5t2 20.5q0 29 -16 46q-8 8 -19 12t-23 4zM825 150q-11 -11 -26 -11q-17 0 -27 11q-4 3 -6.5 8t-3.5 11t-1 14q0 10 2.5 18.5t8.5 13.5q10 11 27 11q7 0 14 -3t12 -8q4 -3 6.5 -8
t3.5 -11t1 -13q0 -23 -11 -33zM986 246q-7 3 -15 -4q-4 -3 -7 -5t-8 -4.5t-10.5 -3.5t-12.5 -1v0h-1q-13 0 -21 4t-17 10q-1 1 -2.5 2t-5.5 2.5t-7 -0.5q-8 -3 -8 -14v-43v-70h22v96q16 -9 39 -9h1q23 0 40 9v-96h21v45v46v22q0 11 -8 14zM705 153q-1 -2 -2 -3
q-11 -11 -27 -11q-8 0 -14.5 2.5t-12.5 8.5q-2 1 -3.5 3.5t-2.5 4.5t-2 5t-1.5 6t-1 6.5t-0.5 7.5q0 10 3 18.5t8 13.5q11 11 27 11t27 -11l2 -2h24q-4 9 -11 17q-5 5 -11.5 8.5t-14 5.5t-16.5 2q-23 0 -39 -13q-19 -17 -19 -50q0 -31 16 -48q8 -8 18.5 -12t23.5 -4
q16 0 30 7.5t21 20.5q2 3 3 6h-25z" />
    <glyph glyph-name="uni345C" unicode="&#x345c;" 
d="M666 448v132l-2 5q-6 16 -20.5 42t-37 58t-47.5 58.5t-55 42.5t-56 11q-25 -5 -42 -25.5t-24.5 -52.5t-10 -61t-2.5 -65v-145q-17 -9 -29.5 -22.5t-19.5 -31.5t-7 -37v-446q0 -43 30 -73t72 -30h205q42 0 72 30t30 73v446q0 29 -15.5 53.5t-40.5 37.5zM415 403h205
q16 0 29 -10.5t16 -26.5h-296q1 4 2.5 7.5t3.5 7t4.5 6.5t5.5 5.5t6.5 4.5t7.5 3.5t8 2t8 0.5zM458 742q26 5 77 -55t75 -118v-110h-186v134q0 27 2 49.5t4.5 38.5t6 28t7.5 18.5t7.5 10t6.5 4.5zM666 -89q0 -13 -6 -24t-17 -17t-23 -6h-205q-19 0 -32.5 13.5t-13.5 33.5
v418h297v-418z" />
    <glyph glyph-name="uni345D" unicode="&#x345d;" 
d="M895 510h2v116q0 55 -38 93t-94 38h-492q-37 0 -70 -18t-52.5 -48.5t-19.5 -64.5v-116h9q-61 -30 -91.5 -88.5t-30.5 -115.5v-197q0 -34 16 -64.5t43 -50.5q-1 -2 -1 -4v-3v-74q0 -14 10 -24t23 -10h74q5 0 9.5 1t8 3.5t6.5 5.5t5.5 6.5t3.5 8t1 9.5v56h605v-56
q0 -14 10 -24t23 -10h74q15 0 24 10q10 10 10 24v74q0 4 -1 9q47 41 47 113v197q0 15 -3 32.5t-9 36.5t-15.5 38t-21.5 36.5t-29 33.5t-36 27zM198 626q0 9 3.5 17.5t8.5 15t12.5 12.5t16 10t17.5 6.5t17 2.5h492q27 0 45.5 -18.5t18.5 -45.5v-95q-3 0 -6.5 0.5t-6.5 0.5h-8
h-565q-23 0 -45 -4v98zM761 82h-495v-45h-116q-25 0 -44.5 22t-19.5 50v197q0 3 0.5 9.5t4 22.5t9 31.5t17.5 33t27.5 31t41 22.5t57.5 9h565q36 0 63.5 -19.5t42 -47.5t21.5 -52t7 -40v-197q0 -28 -14.5 -50t-39.5 -22h-127v45zM263 383q-32 0 -58.5 -15.5t-42 -42
t-15.5 -57.5q0 -48 34 -82t81.5 -34t81.5 34t34 81.5t-34 81.5t-81 34zM262.5 220q-19.5 0 -33.5 14t-14 34t14 34t33.5 14t33.5 -14t14 -34t-14 -34t-33.5 -14zM763.5 383q-22.5 0 -43 -9t-35.5 -23.5t-24 -35.5t-9 -43q0 -46 33 -78.5t79 -32.5q22 0 43 8.5t35.5 23.5
t23.5 35.5t9 43t-9 43.5t-23.5 35.5t-35.5 23.5t-43.5 9zM764 228q-18 0 -31 13t-13 31t13 31t31 13t30.5 -13t12.5 -31q0 -5 -1 -10t-3 -9.5t-5 -8t-7 -6.5t-8 -5.5t-9 -3.5t-10 -1z" />
    <glyph glyph-name="uni345E" unicode="&#x345e;" 
d="M344 382h339q11 0 21.5 3t19.5 8.5t16.5 13t13 16.5t8.5 19.5t3 22.5v264q0 13 -4 25.5t-12 23t-18 18t-22.5 11.5t-25.5 4h-339q-34 0 -58.5 -24t-24.5 -58v-264q0 -35 24.5 -59t58.5 -24zM317 729q0 4 1.5 8t4 7.5t5.5 6t7 3.5t9 1h339q11 0 18.5 -7.5t7.5 -18.5v-264
q0 -8 -3.5 -14t-9.5 -9.5t-13 -3.5h-339q-8 0 -14 3.5t-9.5 9.5t-3.5 14v264zM910 494h-54q-36 0 -63.5 -26t-27.5 -59v-50q-14 4 -26 4h-451q-7 0 -13.5 -1t-13.5 -3v50q0 17 -6.5 33t-17 27t-25 18t-31.5 7h-54q-23 0 -44 -12t-33.5 -31.5t-12.5 -41.5v-454
q0 -33 27.5 -64.5t62.5 -31.5h59v-37h75v37h523v-37h74v37h52q34 0 56.5 30t22.5 66v454q0 36 -23 60.5t-56 24.5zM261 281q0 5 2 10t5.5 8.5t8.5 5.5t11 2h451q11 0 18.5 -7.5t7.5 -18.5v-134q0 -3 -1 -6.5t-2.5 -6.5t-4 -5.5t-5.5 -4t-6.5 -2.5t-6.5 -1h-451
q-11 0 -19 7.5t-8 18.5v134zM933 -45q0 -14 -7.5 -27t-15.5 -13h-783q-4 0 -8.5 3t-9 7t-8 9.5t-6 11t-2.5 9.5v454q0 6 5 13t13 11.5t16 4.5h54q6 0 10.5 -2.5t7.5 -7t4.5 -9.5t1.5 -10v-344h616v82v134v128q0 5 3 10t8 9.5t11.5 7t12.5 2.5h54q10 0 16.5 -9t6.5 -20v-454z
" />
    <glyph glyph-name="uni345F" unicode="&#x345f;" 
d="M959 279q0 90 -76 122q-13 5 -29 8.5t-28 5t-27 1.5v1h-727v-288q0 -105 41 -168t100 -89h-91v-50h644v50h-106q37 15 66 44q25 26 42 61t22.5 68t7 51t1.5 30q38 3 67.5 14.5t50 31t31.5 47t11 60.5zM690 -50q-45 -45 -120 -45h-290q-4 0 -11 1t-23 6t-31 13.5t-33 26
t-30.5 40t-21 58.5t-8.5 79v238h628v-240q0 -13 -1.5 -33.5t-16 -67.5t-42.5 -76zM799 176v191q41 -2 65 -12q11 -5 20 -12t14.5 -16.5t8 -21t2.5 -26.5q-1 -93 -110 -103zM254 813h49v-330h-49v330zM419 813h50v-330h-50v330zM568 813h49v-330h-49v330z" />
    <glyph glyph-name="uni3460" unicode="&#x3460;" 
d="M765 811h-502q-24 0 -44 -11.5t-32 -31.5t-12 -44v-77q0 -36 26 -61.5t62 -25.5h502q37 0 62.5 25.5t25.5 61.5v77q0 36 -25.5 61.5t-62.5 25.5zM795 647q0 -8 -4 -14.5t-11 -10.5t-15 -4h-502q-12 0 -21 8.5t-9 20.5v77q0 12 9 20.5t21 8.5h502q13 0 21.5 -8.5
t8.5 -20.5v-77zM765 540h-502q-36 0 -62 -25.5t-26 -61.5v-542q0 -36 26 -61.5t62 -25.5h502q12 0 23.5 3t21 8.5t17.5 14t14 18t9 20.5t3 23v542q0 36 -25.5 61.5t-62.5 25.5zM795 -89q0 -12 -8.5 -20.5t-21.5 -8.5h-502q-12 0 -21 8.5t-9 20.5v542q0 12 9 20.5t21 8.5h502
q13 0 21.5 -8.5t8.5 -20.5v-542zM618 359q-5 1 -11 1.5t-12 0.5q-46 0 -83 -34q-36 34 -83 34q-11 0 -23 -2q-33 -6 -57.5 -27.5t-33.5 -52.5q-10 -37 1 -74t40 -63q44 -40 119 -114l17 -17l20 -19l20 19l16 16q20 19 34 33t39.5 38.5t46.5 43.5q29 26 40 63.5t1 73.5
q-9 31 -33 52.5t-58 27.5zM629 185q-15 -14 -32 -30t-33.5 -31.5t-27.5 -26.5l-24 -24q-72 71 -117 112q-16 15 -23 36.5t-1 40.5q2 6 4.5 11t7.5 11t13.5 11t19.5 7h4q3 0 5 0.5t4 0.5q37 0 58 -36l25 -42l25 42q3 4 6.5 8.5t10.5 11.5t18 11.5t23 4.5q7 0 13 -1
q15 -3 25 -10.5t14 -14.5t6 -14q6 -20 -0.5 -41.5t-23.5 -36.5z" />
    <glyph glyph-name="uni3461" unicode="&#x3461;" 
d="M529 391q20 0 38.5 8t32 21t21.5 31.5t8 38.5q0 42 -29.5 71t-70.5 29q-27 0 -50 -13.5t-36.5 -36t-13.5 -50.5q0 -41 29.5 -70t70.5 -29zM529 533q17 0 29.5 -12.5t12.5 -30.5q0 -8 -3.5 -16t-9 -13.5t-13 -9t-16.5 -3.5q-17 0 -29.5 12.5t-12.5 30t12.5 30t29.5 12.5z
M837 456q2 17 2 27q0 89 -43 165.5t-116.5 120.5t-160.5 44q-65 0 -124 -26t-101.5 -70.5t-68 -105.5t-25.5 -128q0 -10 2 -27h-81v-633h787v633h-71zM519 756q109 0 185.5 -80t76.5 -193q0 -9 -1 -19t-3 -21l-1 -6l-1 1q-2 -6 -4 -15q-9 -30 -15 -43h-473q-7 13 -16 45
l-1 1q-2 7 -3 11l-2 6q-3 23 -3 40q0 113 76.5 193t184.5 80zM851 -120h-672v365h672v58h-672v96h34q12 -40 30 -65l9 -12h535l9 12q6 8 11.5 19.5t9.5 22.5t7 23h27v-519z" />
    <glyph glyph-name="uni3462" unicode="&#x3462;" 
d="M1008 272v-121h-96q12 22 12 49q0 44 -30 75.5t-74 34.5q-1 0 -2.5 0.5t-3 0.5t-3 -0.5t-3.5 -0.5q-43 -3 -73 -34.5t-30 -75.5q0 -27 12 -49h-407q12 22 12 49q0 44 -30 75.5t-73 34.5q-3 1 -6 1t-6 -1q-43 -3 -73.5 -34.5t-30.5 -75.5q0 -8 1.5 -16.5t4 -16.5t6.5 -16
h-96v121v75v1l1 2q2 105 42 128q11 6 23.5 6t21.5 -3.5t18 -10.5q5 -3 8.5 -6t5.5 -5q4 -4 8 -9l12 -13q11 -13 17 -19.5t17 -18.5t18.5 -18.5t19.5 -16.5t21.5 -15.5t22.5 -12.5q7 -3 13.5 -5.5t12.5 -4.5q12 -4 27 -6t30 -2h25h130h1h130h25q8 0 15.5 0.5t15 1.5t14 2.5
t13.5 3.5q12 4 25 10.5t23 12t22 15.5q6 5 10.5 9.5t8.5 7.5q7 7 18.5 19t17.5 18q1 1 2 2.5t2 3.5l4 2l2 4q2 1 3.5 3t3.5 4q8 9 11 13q4 5 8 9t14 11q4 4 9 6l9 5q9 4 21.5 3.5t23.5 -6.5q40 -23 43 -128v-2v-1v-75v0zM545 209q4 6 1 10.5t-12 4.5h-41q-8 0 -11.5 -4.5
t0.5 -10.5l12 -16q9 -13 13 -18q3 -3 6 -3t4.5 1t2.5 2q8 11 14 18zM213 310h6q12 -7 20.5 -38t8.5 -72q0 -27 -4 -49h-63q-4 23 -4 49q0 41 8.5 72t21.5 38h6zM814 310h6q13 -7 21.5 -38t8.5 -72q0 -26 -4 -49h-63q-2 10 -3 22.5t-1 26.5q0 41 8.5 72t20.5 38h6zM814 310z
" />
    <glyph glyph-name="uni3463" unicode="&#x3463;" 
d="M940 631v-119v-9q-2 -36 -16 -51.5t-42 -18.5q-2 0 -4 -0.5t-5.5 -1t-8.5 -0.5h-179h-32q-62 -9 -62 -60v-55q5 -5 128 -67q6 -3 3 -10l-1 -1q-1 -3 -10 -3l-64 11l-56 11v-427q0 -7 -9 -7q-6 0 -7 5q0 1 -1 2l-19 62q-5 11 -10 26t-9.5 31.5t-5.5 20.5q0 3 -2 4.5
t-6 1.5h-19q-7 0 -9 -6q-4 -27 -23 -78l-20 -62v-1q-1 -6 -8 -6h-1q-8 0 -8 7v427l-57 -11l-64 -11q-7 0 -10 3v1q-2 7 3 10q122 62 128 67v55q0 51 -60 60h-32h-179q-13 0 -16 2q-28 3 -43 18.5t-17 51.5v9v119v65v1v3q0 84 37 109q23 11 44 0q10 -6 17.5 -11.5t11.5 -11.5
q21 -25 29 -34t29 -29t36.5 -28t39 -16t48.5 -8h22h113h113h21q30 0 56 8q13 5 25 11.5t24 15.5q22 19 35.5 32.5t35.5 38.5l6 9q4 3 10 8.5t17 12.5q5 4 10.5 5.5t11.5 1.5q11 1 25 -5q36 -23 36 -109v-3v-1v-65zM159 572q0 -37 25 -63t62 -32q-23 24 -23 93q0 39 8 66.5
t20 29.5q-37 0 -64.5 -28t-27.5 -66zM261 477q38 6 63 31.5t25 64t-27 66t-66 27.5q12 -3 20 -29.5t8 -66.5q0 -6 -0.5 -12.5t-1.5 -12.5v-12q-1 -6 -2 -11.5t-2 -10.5q-6 -26 -17 -34zM496 591q-3 0 -5.5 -1t-3.5 -3q-4 -4 -1 -8l10 -14l5 -5q3 -3 5 -7q1 -2 2 -3l1 -1
q0 -2 4.5 -2t6.5 2l11 16l10 14q5 4 1 8q-1 1 -2.5 2t-3.5 1.5t-5 0.5h-35zM614 476q-5 -6 -19 -10t-32 -1q-10 1 -17.5 6t-13.5 13q-2 3 -4 12q-1 5 -2 8t-1 4q-1 5 -1 16h-20q0 -3 -0.5 -7t-1.5 -9q-1 -13 -8 -24q-10 -18 -28.5 -20.5t-33 2.5t-19.5 10v-11q1 -2 3 -3.5
t4 -3.5t5 -3l6 -2q3 -1 7 -2q18 -5 38.5 1t29.5 24q0 1 2 3q3 3 6 3t6 -3l1 -3q9 -17 30 -23t40 -2t23 14v11zM678 572q0 -36 26 -62.5t61 -32.5q-22 22 -22 93q0 41 8 67t21 29q-38 0 -66 -28t-28 -66zM781 477q38 6 62.5 31.5t24.5 64t-26.5 66t-66.5 27.5q13 -3 21 -29.5
t8 -66.5q0 -16 -1.5 -31t-4.5 -28q-6 -26 -17 -34zM781 477z" />
    <glyph glyph-name="uni3464" unicode="&#x3464;" 
d="M866 299l-479 516h-221l479 -516l-479 -479h221z" />
    <glyph glyph-name="uni3465" unicode="&#x3465;" 
d="M645 -180h221l-479 479l479 516h-221l-479 -516z" />
    <glyph glyph-name="uni3466" unicode="&#x3466;" 
d="M501 796q-81 0 -156.5 -25t-136.5 -71t-107 -107t-71 -136.5t-25 -155.5q0 -101 39.5 -193t105.5 -158t158 -105.5t192.5 -39.5t192.5 39.5t158 105.5t105.5 158t39.5 192.5t-39.5 192.5t-105.5 158t-158 105.5t-192 39.5zM501 -144q-91 0 -173.5 35t-142 95t-94.5 142
t-35 172.5t35 173t94.5 142t142 94.5t173.5 35q72 0 140 -22.5t122.5 -63.5t95.5 -95.5t63.5 -122.5t22.5 -140.5t-22.5 -140t-63.5 -122.5t-95.5 -96t-122.5 -63.5t-140 -22.5zM479 285q-2 10 -10.5 16.5t-18.5 4.5l-50 -8v107h51q10 0 17.5 7.5t7.5 18t-7.5 18t-17.5 7.5
h-51v84q0 11 -7.5 18.5t-18 7.5t-18 -7.5t-7.5 -18.5v-84h-33v51q0 10 -7.5 17.5t-18.5 7.5q-3 0 -6.5 -1t-6 -2.5t-5 -4t-4 -5t-2.5 -6t-1 -6.5v-61q0 -13 -6.5 -22t-13.5 -9q-11 0 -18 -7.5t-7 -18t7 -18t18 -7.5q19 0 35 11.5t26 29.5h43v-114l-104 -17q-11 -1 -17 -9.5
t-4 -19.5q1 -9 8 -15t17 -6h4l96 15v-172q0 -10 7.5 -17.5t18 -7.5t18 7.5t7.5 17.5v180l57 9q11 1 17 9.5t5 19.5zM738 405h-101v51h84q7 0 13 3.5t9.5 9t3.5 12.5q0 11 -7.5 18.5t-18.5 7.5h-84v67q0 11 -7.5 18.5t-18 7.5t-18 -7.5t-7.5 -18.5v-67h-68q-10 0 -17.5 -7.5
t-7.5 -18t7.5 -18t17.5 -7.5h68v-51h-84q-11 0 -18.5 -7.5t-7.5 -18t7.5 -18t18.5 -7.5h236q7 0 13 3.5t9.5 9.5t3.5 13q0 5 -2 9.5t-5.5 8t-8.5 5.5t-10 2zM738 287h-50v34q0 10 -7.5 17.5t-18.5 7.5q-7 0 -12.5 -3.5t-9 -9t-3.5 -12.5v-34h-135q-11 0 -18.5 -7.5t-7.5 -18
t7.5 -18t18.5 -7.5h135v-121q0 -13 -2 -18.5t-12 -9.5t-33 -4q-11 0 -18 -7.5t-7 -18t7 -18t18 -7.5q13 0 21.5 1t24.5 5t26 12t18 25t8 40v121h50q11 0 18.5 7.5t7.5 18t-7.5 18t-18.5 7.5zM526.5 211q-10.5 0 -17.5 -7.5t-7 -18.5v-50q0 -5 2 -10t5 -8.5t8 -5.5t10 -2
q10 0 17.5 7.5t7.5 18.5v50q0 11 -7.5 18.5t-18 7.5z" />
    <glyph glyph-name="uni3467" unicode="&#x3467;" 
d="M499.5 795q-100.5 0 -192 -39t-158 -105.5t-106 -158t-39.5 -192.5q0 -80 25 -155.5t71 -136.5t107 -106.5t136.5 -70.5t155.5 -25q101 0 192.5 39t158 105.5t105.5 158t39 192t-39 192t-105.5 158t-158 105.5t-192 39zM499 -144q-90 0 -172 35.5t-141.5 95t-95 141.5
t-35.5 172q0 52 11.5 102t33.5 93.5t52.5 82t69 69t82.5 52.5t93.5 33.5t101.5 11.5q90 0 172.5 -35t142 -94.5t94.5 -142t35 -172.5t-35 -172t-94.5 -141.5t-142 -95t-172.5 -35.5zM729 415l-296 -31v139q0 10 -7.5 17.5t-18 7.5t-18 -7.5t-7.5 -17.5v-144l-141 -15
q-7 -1 -12.5 -5t-8.5 -10t-2 -13q1 -10 8.5 -16.5t16.5 -6.5q1 0 3 1l136 14v-126q0 -60 24.5 -89t92.5 -29h136q13 0 21.5 0.5t24 4.5t24.5 11.5t17 23t8 37.5q0 7 -3.5 13t-9.5 9.5t-13 3.5q-4 0 -8 -1.5t-7 -4t-5.5 -5.5t-3.5 -7t-1 -8q0 -17 -7 -21.5t-37 -4.5h-136
q-44 0 -55 12.5t-11 54.5v131l301 31q11 1 17.5 9.5t5.5 18.5t-9.5 17t-18.5 6z" />
    <glyph glyph-name="uni3468" unicode="&#x3468;" 
d="M514.5 811q-80.5 0 -155.5 -25t-136 -70.5t-106.5 -106t-70.5 -136t-25 -156t25 -155.5t70.5 -135.5t106.5 -106.5t136 -71t155.5 -25t155.5 25t136 71t106.5 106.5t70.5 135.5t25 155.5t-25 156t-70.5 136t-106.5 106t-136 70.5t-155.5 25zM515 -125q-90 0 -172 35
t-141.5 94.5t-94.5 141.5t-35 172q0 60 16 117.5t44.5 106t69.5 89.5t89.5 69.5t105.5 44.5t118 16q90 0 172 -35.5t141 -94.5t94.5 -141t35.5 -172t-35.5 -172t-94.5 -141.5t-141 -94.5t-172 -35zM399 542q2 11 -4.5 19t-17 9.5t-18.5 -4.5t-10 -16q0 -4 -2 -12t-10 -32
t-20 -50t-34.5 -64.5t-50.5 -76.5q-7 -8 -5.5 -18.5t10.5 -16.5q7 -5 15 -5q13 0 20 10q7 9 13 17.5t12 17.5v-218q0 -10 7.5 -17.5t17.5 -7.5q5 0 10 2t8 5.5t5 8t2 9.5v301q44 84 52 139zM734 388q11 0 18.5 7.5t7.5 18t-7.5 18t-18.5 7.5h-184q4 62 1 109q-1 10 -8.5 17
t-18.5 6q-10 0 -17 -8t-6 -19q2 -42 -2 -105h-84q-11 0 -18.5 -7.5t-7.5 -18.5q0 -6 3.5 -12t9.5 -9.5t13 -3.5h80q-21 -189 -104 -259q-8 -7 -9 -17.5t6 -18.5q7 -9 19 -9q9 0 16 6q100 84 123 298h188zM743 245q-11 0 -18 -7.5t-7 -17.5v-59q0 -8 -9.5 -16.5t-17.5 -8.5
h-50q-4 0 -7.5 0.5t-7.5 2.5t-7 5q-7 6 -6 19v183q0 11 -7.5 18t-17.5 7q-11 0 -18 -7.5t-7 -17.5v-1v-44q0 -32 -0.5 -76t-0.5 -61q0 -13 3.5 -24.5t7.5 -18.5t10 -13q7 -7 16 -12t17 -7t14 -3t11 -1h50q18 0 35.5 10t29.5 28t12 38v59q0 10 -7.5 17.5t-17.5 7.5zM607 505
l61 -26q5 -2 10 -2q7 0 13.5 4t9.5 11q4 10 0.5 19.5t-13.5 13.5l-60 26q-10 4 -20 0.5t-14 -13t0 -19.5t13 -14z" />
    <glyph glyph-name="uni3469" unicode="&#x3469;" 
d="M516 811q-68 0 -132 -18t-118 -50t-100 -77.5t-78 -99.5t-49.5 -118.5t-17.5 -131.5q0 -100 39 -192t105.5 -158t158 -105.5t192.5 -39.5q80 0 155.5 25t136.5 71t106.5 107t70.5 136.5t25 155.5q0 183 -119 322q-114 133 -285 165q-45 8 -90 8zM515.5 -129
q-90.5 0 -172.5 35.5t-142 95t-95 142t-35 172.5t35 172.5t95 142t142 95t172.5 35.5t173 -35.5t142 -95t94.5 -142t35 -172.5t-35 -172.5t-94.5 -142t-142 -95t-173 -35.5zM389.5 557q15.5 0 26.5 10.5t11 26t-11 26.5t-26.5 11t-26.5 -11t-11 -26.5t11 -26t26.5 -10.5z
M642 557q10 0 18.5 5t13.5 13.5t5 18.5q0 15 -11 26t-26 11q-10 0 -19 -5t-14 -13.5t-5 -18.5q0 -16 11 -26.5t27 -10.5zM515.5 557q15.5 0 26.5 10.5t11 26t-11 26.5t-26.5 11t-26.5 -11t-11 -26.5t11 -26t26.5 -10.5zM636 145q17 15 30.5 32t25 43.5t11.5 55.5
q0 71 -51.5 127.5t-133.5 56.5q-79 0 -129.5 -56.5t-50.5 -127.5q0 -79 59 -132q-38 -26 -64.5 -70t-26.5 -104q0 -11 7.5 -18t17.5 -7q5 0 9.5 2t8 5t5.5 8t2 10q0 31 10 57.5t22.5 42t29 27.5t23.5 15.5t12 5t8.5 5t6 8t2.5 9.5q0 7 -3.5 13.5t-10.5 10.5q-4 1 -9 4
t-16.5 13t-20 21.5t-15.5 31.5t-7 42q0 51 36.5 92.5t93.5 41.5q59 0 97 -41.5t38 -92.5q0 -19 -8.5 -38t-18 -31t-23 -23.5t-18.5 -15t-8 -5.5q-14 -8 -12.5 -24t16.5 -21l11 -6q7 -3 24.5 -15.5t30.5 -27.5t24 -42t11 -57q0 -11 7 -18t17.5 -7t18 7t7.5 18q0 44 -17 81.5
t-36 57.5t-43 36z" />
    <glyph glyph-name="uni346A" unicode="&#x346a;" 
d="M841 549q4 -7 6 -18q1 -3 1.5 -7t0.5 -8v-7q0 -5 -1 -11t-3 -11.5t-5.5 -11t-8.5 -10.5q-5 -6 -10 -10.5t-9 -8.5q-8 -7 -14 -14q-7 -7 -13 -12l-164 163q11 10 25 24q7 6 13 11.5t11 9.5q6 5 12.5 8t13.5 5q13 4 25 4q7 0 13 -1t12 -3t11 -4t9 -4q5 -2 9.5 -5.5t10 -7.5
t10.5 -9l11 -11q11 -12 19.5 -25t14.5 -26zM162 124q5 5 24 24.5t48 48.5l64 64l70 70l188 188l163 -164l-188 -188l-69 -70q-18 -17 -33.5 -33t-29.5 -30l-47 -46q-18 -19 -21 -21q-9 -8 -20.5 -17t-23.5 -14q-12 -6 -35.5 -15t-49.5 -17t-49 -14t-34 -8q-24 -3 -31.5 6.5
t-4.5 32.5q2 12 8.5 35.5t14 48.5t14.5 45q1 3 1.5 5.5t1.5 4.5t1.5 4t1.5 4l2 4v2l1.5 3t1.5 2q3 6 5.5 11.5t6.5 10.5q6 10 19 23zM162 124zM452 -41h78v-78h-78v78zM611 -41h78v-78h-78v78zM770 -41h78v-78h-78v78z" />
    <glyph glyph-name="uni346B" unicode="&#x346b;" 
d="M952 128l-437 438l-439 -438v-116h1l438 437l437 -437v116z" />
    <glyph glyph-name="uni346C" unicode="&#x346c;" 
d="M976 758h-923q-13 0 -22 -9t-9 -22v-287q0 -12 9 -21t22 -9h113v-503q0 -12 9 -21t22 -9h635q8 0 15.5 4t11.5 11t4 15v503h113q12 0 21 9t9 21v287q0 13 -9 22t-21 9zM667 697q-2 -13 -5.5 -24.5t-11 -25.5t-18.5 -25q-19 -20 -46.5 -30t-64.5 -10q-39 0 -68.5 11.5
t-46.5 30.5t-25.5 36t-13.5 37h300zM227 -62v41h574v-41h-574zM945 471h-113q-5 0 -9.5 -1.5t-8.5 -4.5t-7 -6.5t-4.5 -8.5t-1.5 -10v-420h-574v420q0 7 -2.5 12.5t-6.5 9.5t-9.5 6.5t-11.5 2.5h-113v226h241q4 -19 10.5 -37t21.5 -40.5t35 -39t54 -28t75 -11.5q30 0 56 6
t47 17.5t38 28.5q38 41 47 104h236v-226z" />
    <glyph glyph-name="uni346D" unicode="&#x346d;" 
d="M797 339h-104q-29 0 -53 5t-43.5 15t-33.5 25q-18 19 -27.5 47.5t-10 40t-0.5 20.5v208q0 7 -2.5 13t-7 10.5t-10.5 7t-12 2.5h-438q-14 0 -23.5 -10t-9.5 -23v-656l1 -6q-1 -3 -1 -5v-88q0 -8 4.5 -15.5t11.5 -12.5q4 -7 11.5 -11t16.5 -4h908q9 0 16.5 4t12 11.5
t4.5 16.5v187q0 39 -10.5 72t-28 55.5t-39 40t-45.5 28t-45.5 16t-41.5 6.5zM88 667h372v-173q1 -2 0 -10.5t2 -26.5t7.5 -36.5t16.5 -40.5t29 -40q15 -17 34 -29.5t41.5 -20.5t48 -12.5t54.5 -4.5h102q7 0 18 -1.5t35.5 -11t43.5 -24.5t34 -45t15 -70v-44h-853v590z
M941 -33h-853v44h853v-44zM372 629q-5 0 -9.5 -1.5t-8.5 -4.5t-6.5 -6.5t-4 -8t-1.5 -9.5q0 -6 2.5 -11.5t6.5 -9.5t9.5 -6.5t11.5 -2.5q3 0 6.5 0.5t6.5 2t5.5 4t4.5 5t3.5 5.5t2.5 6t1 7q0 12 -9 21t-21 9zM372 530q-4 0 -8 -1t-7.5 -3t-6 -5t-4.5 -6t-3 -7t-1 -8
q0 -12 8.5 -21t21 -9t21.5 9t9 21t-9 21t-21 9zM372 431q-13 0 -21.5 -8.5t-8.5 -21t8.5 -21.5t21 -9t21.5 9t9 21q0 8 -4 15t-11 11t-15 4z" />
    <glyph glyph-name="uni346E" unicode="&#x346e;" 
d="M833 808h-636q-38 0 -65.5 -27.5t-27.5 -65.5v-791q0 -13 3.5 -25t9.5 -22.5t14.5 -19t19 -14.5t22.5 -9.5t24 -3.5h636q39 0 66 27.5t27 66.5v791q0 38 -27 65.5t-66 27.5zM860 -76q0 -11 -8 -19t-19 -8h-636q-5 0 -10 2t-8.5 5.5t-5.5 8.5t-2 11v791q0 11 7.5 19
t18.5 8h636q11 0 19 -8t8 -19v-791zM237 -59h556v734h-556v-734zM282 -14v173q2 1 3.5 2t2.5 2l159 126l75 -98q3 -3 7 -5.5t8 -3t8.5 0.5t7.5 4l93 71l103 -130v-142h-467zM749 630v-430l-82 102q-5 8 -14 9t-17 -5l-92 -70l-75 98q-6 7 -15 8t-17 -5l-155 -123v416h467z
" />
    <glyph glyph-name="uni346F" unicode="&#x346f;" 
d="M530 -24q-68 0 -130 26.5t-107 71.5t-71.5 107t-26.5 131q0 91 44.5 168.5t122 122t168.5 44.5q55 0 106.5 -16.5t92.5 -48t72 -72.5t48 -92.5t17 -105.5q0 -92 -45 -169t-122 -122t-169 -45zM530 594q-76 0 -141 -38t-103 -103t-38 -141.5t38 -141.5t103 -102.5
t141 -37.5q117 0 199.5 82.5t82.5 199.5q0 38 -10 74.5t-28 67.5t-44 57t-57 44t-67.5 28.5t-75.5 10.5zM484 234l-21 163v89h134v-89l-21 -163h-92zM583 110h-102v69h102v-69z" />
    <glyph glyph-name="uni3470" unicode="&#x3470;" 
d="M515 -26q-75 0 -144 29t-118.5 79t-79 118.5t-29.5 144.5q0 100 49.5 185.5t135 135.5t186.5 50q43 0 85 -10t78.5 -28t68.5 -43.5t57.5 -58t44 -69t28 -78t9.5 -84.5q0 -101 -49.5 -186.5t-135 -135t-186.5 -49.5zM668 366h-44v44h-43v44h-44v43h-44v44h-87v-44h44v-43
h43v-44h44v-44h44v-43h-44v-44h-44v-43h-43v-44h-44v-44h87v44h44v44h44v43h43v44h44v43z" />
    <glyph glyph-name="uni3471" unicode="&#x3471;" 
d="M810 380v-109h-109v-109h-109v-109h-109v109h-109v109h-109v109h-109v218h109v-109h109v-109h109v-109h109v109h109v109h109v109h109v-218h-109z" />
    <glyph glyph-name="uni3472" unicode="&#x3472;" 
d="M937 294v30h-30v30h-30v-30h-29v-30h-30v60h30v29h29v30h30v-30h30v-29h29v-60h-29zM670 324h-89v-59h-60v207h60h89v-29h29v-89h-29v-30zM640 443h-59v-89h59v89zM462 265h-148v29h-30v149h30v29h148v-29h30v-149h-30v-29zM432 443h-89v-149h89v149zM195 265h-59v178
h-60v29h178v-29h-59v-178z" />
    <glyph glyph-name="uni3473" unicode="&#x3473;" 
d="M373 13v152h531v-152h-531zM373 392h531v-152h-531v152zM373 620h531v-152h-531v152zM145 165h152v-152h-152v152zM145 392h152v-152h-152v152zM145 620h152v-152h-152v152z" />
    <glyph glyph-name="uni3474" unicode="&#x3474;" 
d="M657 291v-101h-102v-101h-101v-102h-101v709h101v-101h101v-101h102v-101h101v-102h-101z" />
    <glyph glyph-name="uni3475" unicode="&#x3475;" 
d="M517 753q-88 0 -169 -35t-139.5 -93t-93 -139t-34.5 -169.5t34.5 -169.5t93 -139.5t139.5 -93t169.5 -34.5t169.5 34.5t139.5 93t93 139.5t34.5 169q0 71 -22 138t-62.5 120.5t-94 94t-120.5 62.5t-138 22zM399 93q-14 0 -24 10t-10 23q0 7 3 13.5t7.5 11t10.5 7t13 2.5
q3 0 5.5 -0.5t5.5 -1.5l4 -2q3 -1 5 -2.5t3 -3.5l4 -4l2 -4q2 -2 2.5 -4.5t1 -5.5t0.5 -6q0 -9 -4.5 -16.5t-12 -12t-16.5 -4.5zM604 84q-13 0 -23.5 6t-16.5 16.5t-6 23t6 23t16.5 17t23.5 6.5q19 0 32.5 -13.5t13.5 -33t-13.5 -32.5t-32.5 -13zM808 491q0 -6 -3 -11.5
t-9 -8.5t-13 -3h-79l-90 -256q-3 -7 -9.5 -11.5t-14.5 -4.5h-2h-242q-10 0 -17.5 7t-7.5 17v7q0 10 7.5 17t17.5 7h224l11 34h-276q-6 0 -11.5 3t-8.5 8.5t-3 11.5v7q0 10 6.5 17t16.5 7h295h1l11 33h-332q-10 0 -17 7t-7 17v7q0 10 7 16.5t17 6.5h352l28 81q5 15 21 16h2h2
h98q10 0 17.5 -7t7.5 -16v-9z" />
    <glyph glyph-name="uni3476" unicode="&#x3476;" 
d="M871 317q35 -42 0 -80l-248 -249q-8 -6 -17 -9t-19 -2q-4 0 -8.5 1t-8.5 3q-9 3 -14 9q-90 89 -160 160l-60 60l-52 52q-23 24 -37 38l-15 15q-2 2 -5 7q-2 2 -4 5.5t-4 7.5q-4 9 -7 19q-1 4 -2 7.5t-1 7.5v8v14v28q0 16 1 37v20v20q1 51 2 108q1 5 1.5 10t1.5 10
q2 9 10 18q8 8 18 11t18 3h243h12q2 0 4 -0.5t3.5 -0.5t2.5 -0.5t2 -0.5q4 -2 10 -6t10 -8zM325 492q21 0 35.5 14.5t14.5 35.5t-14.5 35.5t-35.5 14.5t-35.5 -14.5t-14.5 -35.5t14.5 -35.5t35.5 -14.5zM325 492z" />
    <glyph glyph-name="uni3477" unicode="&#x3477;" 
d="M887 -124h-728q-38 0 -64.5 27t-26.5 64v425q0 38 26.5 64.5t64.5 26.5h60l258 198q-2 8 -2 15q0 16 8.5 30t22.5 22t30 8q25 0 43 -17.5t18 -42.5q0 -16 -8 -30l238 -183h60q38 0 64.5 -26.5t26.5 -64.5v-425q0 -37 -26.5 -64t-64.5 -27zM556 71h122v23h-97v173h-25
v-196zM380 71l22 59h82l23 -59h29l-80 196h-28l-75 -196h27zM200 244q-9 -13 -9 -28q0 -14 7 -24.5t21 -18.5q5 -3 14.5 -6t22.5 -6q28 -7 35 -10q12 -4 18 -11q2 -3 3.5 -7t1.5 -9v-4q0 -1 -0.5 -3t-1 -3.5t-1.5 -3t-2 -3.5q-3 -4 -7 -7t-10 -5q-11 -4 -26 -4q-17 0 -30 5
q-3 2 -5.5 3t-4.5 2.5t-3.5 3t-3 3.5t-3.5 4q-6 9 -8 24l-24 -2q0 -20 10 -35q6 -8 13 -14t16 -10q17 -7 44 -7q21 0 37.5 7.5t25.5 21.5t9 29.5t-8 27.5t-25 20q-12 5 -43.5 12t-38.5 14q-3 2 -4.5 5t-2.5 6t-1 7q0 6 2.5 11t8.5 9q10 9 34 9q22 0 33.5 -9.5t13.5 -27.5
l25 2q-1 17 -9.5 30.5t-25.5 20.5t-38 7q-20 0 -36 -7q-2 -1 -4.5 -2t-4.5 -2t-3.5 -2.5t-3.5 -3t-3.5 -3t-2.5 -3t-2 -3.5zM574 649q-8 -7 -17.5 -10.5t-20.5 -3.5q-30 0 -49 25l-237 -177h546zM855 94h-120v67h108v23h-108v60h115v23h-141v-196h146v23zM441 246
q5 -16 14 -41l21 -54h-67l22 58q7 18 10 37z" />
    <glyph glyph-name="uni3478" unicode="&#x3478;" 
d="M155 385v71h87l175 171q-2 6 -2 10q0 7 3 13.5t7.5 11t11 7t13.5 2.5q14 0 24.5 -10t10.5 -24q0 -9 -5 -17t-13 -12.5t-17 -4.5q-2 0 -5 1l-2 1l-153 -149h450l-152 149q-6 -2 -9 -2q-14 0 -24.5 10t-10.5 24t10.5 24t24.5 10t24.5 -10t10.5 -24q0 -1 -0.5 -3t-1 -3
t-0.5 -3l175 -172h88v-71h-720zM733 50q-7 -26 -26 -25l-385 -1q-4 0 -7.5 1.5t-6 3.5t-4.5 4.5t-3.5 5.5t-2 5t-0.5 4l-1 1l-102 298l640 1z" />
    <glyph glyph-name="uni3479" unicode="&#x3479;" 
d="M976 317q-2 16 -15.5 29t-33 21t-35 13t-31 7.5t-63 4t-123.5 0.5q-4 7 -10.5 17.5t-16 28t-20.5 34.5q43 39 55 54q10 12 6.5 20.5t-12.5 12.5t-20 4h-19h-26h-22h-14q-76 132 -96 162q-16 25 -40.5 30.5t-42 -5t-15.5 -25.5q2 -27 83 -337q-1 0 -4 -0.5t-4 -0.5
q-56 -1 -106 -7t-94 -15q-4 5 -9 10t-13 13.5t-15.5 17t-17 18.5t-17.5 19t-16.5 18.5t-15.5 16.5q-11 13 -21 18.5t-17 4t-12 -6t-7 -10.5t-1 -11q7 -44 36 -142q-11 -3 -17.5 -6.5t-6.5 -8.5v0q0 -9 24 -15q-29 -98 -36 -142q0 -2 0.5 -5t1.5 -6.5t3.5 -6t5.5 -5t6.5 -3.5
t8 -0.5t9.5 2.5t11 7t12 12q36 41 104 113q29 -5 58.5 -9.5t66.5 -8t75 -4.5h4h4q-81 -310 -83 -337q-2 -15 15.5 -25.5t42 -5.5t40.5 31q19 30 96 162h19h36h26q8 0 15 2t12.5 6.5t5.5 12t-7 16.5q-12 15 -55 53q11 18 20.5 35t16 28t10.5 18q38 -1 69.5 -0.5t55 1t39 1.5
t22.5 2q21 4 44 12t46 24.5t25 35.5z" />
    <glyph glyph-name="uni347A" unicode="&#x347a;" 
d="M134 473v-119l515 -136v135zM699 358v-320q10 -2 22 -2q10 0 23.5 2t29.5 9q19 7 29.5 19.5t16.5 24.5q6 15 7 30l23 342q-5 -12 -14 -23q-1 -2 -2.5 -3.5t-2.5 -3.5t-2.5 -3.5t-2.5 -3.5l-4 -4q-1 -2 -3 -4q-5 -5 -11 -10t-13 -10q-16 -11 -33 -18l-8 -4q-4 -2 -8 -3.5
t-7.5 -3t-7.5 -2.5q-16 -5 -32 -9zM141 510l703 62q-2 -23 -10 -44q-7 -19 -19 -39.5t-32 -36.5q-26 -22 -49 -32.5t-40 -15.5q-21 -6 -38 -6zM563 511q-8 0 -14.5 -6.5t-6.5 -15t6 -15.5q2 -2 4.5 -3.5t5 -2t5.5 -0.5q9 0 16 6q6 7 6 15q0 5 -1.5 8.5t-4.5 7.5q-3 2 -5 3.5
t-5 2t-6 0.5zM649 473q-5 0 -9 -2t-7 -5q-6 -7 -6 -16t6 -16q3 -3 7 -4.5t9 -1.5q9 0 15.5 6.5t6.5 15.5q0 5 -1.5 8.5t-5 7t-7.5 5.5t-8 2zM678 532q-9 0 -15 -7q-4 -3 -5.5 -6.5t-1.5 -8.5q0 -9 6.5 -15t15.5 -6t15 6q3 3 4.5 7t1.5 8q0 9 -6 15.5t-15 6.5zM754 527
q-9 0 -15 -6t-6 -15t6 -15t14.5 -6t15 6t6.5 15q0 2 -0.5 4.5t-1 4t-2 3.5t-2.5 3q-7 6 -15 6zM467 511q-8 0 -14.5 -6.5t-6.5 -15.5q0 -4 1.5 -8t4.5 -7q7 -6 15.5 -6t15.5 6q2 2 3.5 4.5t2 5.5t0.5 5q0 5 -1.5 8.5t-5 7t-7 5t-8.5 1.5zM649 168l-515 143v-63
q0 -28 10.5 -43t38.5 -25q3 -2 25 -8t55 -17q33 -10 75 -23q21 -6 42 -12.5t43 -12.5q100 -32 226 -69v130zM649 168z" />
    <glyph glyph-name="uni347B" unicode="&#x347b;" 
d="M709 365v98h-98v98h-98v97h-98v98h-195v-98h98v-97h97v-98h98v-98h98v-98h-98v-97h-98v-98h-97v-98h-98v-97h195v97h98v98h98v98h98v97h97v98h-97z" />
    <glyph glyph-name="uni347C" unicode="&#x347c;" 
d="M295 757h125v-125h-125v125zM420 632h125v-125h-125v125zM545 507h124v-124h-124v124zM669 383h125v-125h-125v125zM545 258h124v-125h-124v125zM420 133h125v-125h-125v125zM295 1v-117v-8h125v8v117v7h-125v-7z" />
    <glyph glyph-name="uni347D" unicode="&#x347d;" 
d="M515 754q-89 0 -170.5 -34.5t-140 -93.5t-93 -140t-34.5 -170q0 -72 22 -139t62.5 -121t94.5 -94.5t121 -62.5t138 -22q89 0 170.5 34.5t140 93.5t93.5 140t35 171q0 167 -112 292q-108 121 -268 142q-30 4 -59 4zM515 -71q-105 0 -194 51.5t-141 141t-52 194.5t52 194
t141 140.5t194 51.5q53 0 103 -13.5t92.5 -38.5t78 -61t60.5 -78t39 -92.5t14 -102.5q0 -153 -104 -264q-102 -109 -250 -122q-17 -1 -33 -1zM562 228q0 -14 2 -21t6 -12l2 -3q2 -1 4.5 -2t4.5 -2q4 -1 8.5 -2t10.5 -2q11 -1 30 -1v-22h-209v22q14 0 23.5 1t15.5 2
q3 0 6.5 1t6 2.5t4.5 2.5q6 4 9 11.5t3 24.5v175q0 5 -1 8.5t-3 5.5t-4.5 3t-5.5 1q-6 0 -17 -5.5t-36 -22.5l-15 26l126 75h31q-2 -23 -2 -64v-202z" />
    <glyph glyph-name="uni347E" unicode="&#x347e;" 
d="M515.5 755q-89.5 0 -171 -34.5t-140 -93.5t-93.5 -140t-35 -170.5t35 -171t93.5 -140t140 -93.5t171 -35t170.5 35t140 93.5t93.5 140t34.5 171t-34.5 170.5t-93.5 140t-140 93.5t-170.5 34.5zM774 150.5q-3 -17.5 -8 -32.5q-12 -53 -84 -50h-65q-75 -3 -73 67v154
l-74 -2q13 -173 -183 -234q-3 7 -9 15q-6 9 -13 19q-3 3 -5 6l-4 6q-1 1 -1.5 2.5t-1.5 3t-2 2.5q96 31 126 66q33 33 33 109h-24h-8q-3 0 -6.5 -0.5t-6.5 -1t-6 -0.5t-5.5 -0.5t-5 -0.5t-4.5 -1q-16 -2 -24 -4l-29 56q15 7 28 15.5t24 19.5q8 7 16.5 14t16.5 15l16 14
l16 16t16 16.5t16 17.5h-182v55h235q-1 4 -6 20q-6 15 -8 24q-2 5 -3.5 9t-2.5 6l67 7q1 -6 5 -16q4 -11 8 -26l4 -14q1 -7 2 -10h213v-55h-253q-75 -75 -129 -121l238 6q-9 12 -31 32q-11 10 -18 16l-3 3q-2 2 -4 3.5t-3 3t-3 2.5l40 30q19 -16 38 -32.5t39 -34.5
q41 -36 78 -69l-45 -41l-36 36l-76 -3v-136q-3 -38 37 -35h30q20 0 31 7.5t14 23.5q1 11 2.5 19t2.5 15q2 16 3 27q6 -2 13 -5t15 -6q7 -3 13.5 -5.5t13.5 -5.5q-2 -20 -5 -37.5z" />
    <glyph glyph-name="uni347F" unicode="&#x347f;" 
d="M821 147q15 -9 27 -22t21 -29q19 -33 19 -72q0 -30 -12 -57l-4 -8l-4 -8l-6 -8q-2 -4 -5 -7l-6 -8l-6 -6q-10 -10 -21.5 -18t-24.5 -13q-26 -12 -57 -12q-38 0 -69.5 18.5t-51.5 48.5q-3 3 -6 7.5t-7 8.5q-15 21 -18.5 50.5t-3.5 61.5q2 39 2 63q1 10 0.5 19.5t-1.5 18.5
t-3 17q-11 19 -23 40q-13 22 -29 44q-2 3 -5 6l-4 6q-18 -22 -34 -43q-2 -2 -4 -5t-4 -5.5t-4.5 -5.5t-4.5 -5.5t-4 -5.5t-4 -5.5t-4.5 -5.5t-4.5 -6q-4 -5 -8 -11q-3 -6 -7 -11q-5 -9 -7 -16.5t-2 -14.5q0 -13 3 -25q2 -6 4 -12.5t4 -13.5q4 -13 4 -30q1 -8 -0.5 -18
t-3.5 -22q-5 -23 -20 -55q-16 -42 -52 -68q-8 -6 -15.5 -10t-15.5 -7t-17 -5.5t-17.5 -3.5t-18.5 -1q-30 0 -56 11.5t-46 31.5q-7 7 -12.5 14.5t-10.5 15.5t-8 17q-12 26 -12 56q0 34 14 62.5t38 48.5q11 12 23 22.5t25 18.5q25 16 50 30q24 13 47 27q22 14 39 34q4 4 7 9
t7 9l1 1q2 4 4.5 7.5t5.5 6.5q13 16 26 35q6 9 13 18t13 18q-23 25 -41 41q-17 16 -32 37q-16 21 -29.5 43.5t-24.5 45.5q-22 46 -34 88q-4 13 -7 26t-4.5 25t-1.5 23q0 33 12 49q1 0 2 1l4 2q1 1 3 1.5t4.5 1t4.5 1.5q6 1 11 -1.5t8 -7.5q15 -22 38 -58q20 -31 46 -69
q8 -13 17 -26l16 -26q9 -13 18 -27q25 -37 54 -80q5 7 10 15q3 4 5.5 8t5.5 7q25 37 47 75q12 18 22.5 36.5t20.5 36.5q7 13 13 23.5t11.5 21t10.5 19.5q14 26 23 43q3 3 6 5.5t7 3.5t9 1h7q2 0 5 -1t5.5 -2t5 -2.5t4.5 -3.5q3 -3 5.5 -11t4.5 -21q4 -27 -3 -68.5
t-29.5 -95.5t-70.5 -115l-29 -37q-15 -18 -30 -37q20 -31 40 -61q8 -14 17 -26.5t17 -25.5q12 -12 23.5 -21.5t22.5 -16.5q24 -14 45 -23q4 -2 8.5 -4t7.5 -3l8 -4q5 -3 7 -4l8 -3q19 -9 33 -22zM285 -43q30 0 50.5 21t20.5 51q0 7 -1.5 14t-4 13.5t-6.5 12t-9 11.5
q-7 7 -14.5 11.5t-16.5 7t-19 2.5q-29 0 -50 -21q-6 -6 -9.5 -11.5t-6.5 -12t-4 -13.5t-1 -14q0 -30 21 -51q10 -11 23 -16t27 -5zM742 -43q29 0 49.5 20.5t20.5 50.5t-20.5 51t-49.5 21q-15 0 -27.5 -5t-23.5 -16q-21 -21 -21 -51q0 -15 5 -28q2 -4 4.5 -8t5 -7.5t6.5 -6.5
q2 -3 4.5 -5t5.5 -4t6 -3l7 -4q1 0 3 -1t4 -1l4 -2h4q2 -1 4 -1h4h5zM742 -43z" />
    <glyph glyph-name="uni3480" unicode="&#x3480;" 
d="M954 605q0 -27 -25 -50q-6 -6 -13.5 -11.5t-16 -10.5t-18 -9.5t-20.5 -9.5q-43 -17 -101 -26.5t-124 -9.5q-33 0 -64 2.5t-61 6.5q-14 3 -27.5 6t-26.5 6t-24.5 7t-22.5 8q-43 18 -69 41q-12 11 -18.5 23.5t-6.5 26.5q0 27 25 50t68 41q22 9 47 16t54 12t60.5 7.5
t64.5 2.5q67 0 125 -10t101 -28q22 -9 39 -19t29 -22q9 -8 14.5 -16t8 -16.5t2.5 -17.5zM636 658q-40 0 -67 -14q-14 -7 -21 -15.5t-7 -18t7 -18t21 -15.5q3 -2 7 -3l10 -4q4 -1 8.5 -2t9.5 -1.5t10 -1.5t10 -1h12q39 0 67 13q7 4 12.5 7.5t9 7.5t5 8.5t1.5 9.5q0 20 -28 34
q-5 2 -11 4.5t-12.5 4t-13.5 3t-14.5 2t-15.5 0.5zM317 519q7 -6 15.5 -12t18 -11t20 -10.5t21.5 -9.5q39 -17 99 -30.5t144 -13.5q86 0 146 14q20 4 37.5 9t33 10t28.5 11q23 9 41.5 20t32.5 23v-502q0 -16 -17.5 -35.5t-54.5 -38t-94 -30.5q-58 -13 -138 -13q-41 0 -77 3
t-67 8q-62 11 -104.5 27.5t-63.5 37.5q-22 21 -22 41v271q0 108 1 231zM265 508h-189l82 -246l-82 -245h189v491zM265 508z" />
    <glyph glyph-name="uni3481" unicode="&#x3481;" 
d="M954 317q-2 13 -11.5 24t-22 18.5t-29 13.5t-28.5 9t-23 5q-32 6 -186 5q-1 0 -46 80q42 38 54 53q7 9 7 16t-5.5 12t-12.5 7t-15 2h-81q-76 131 -95 162q-10 15 -24 23t-27 8t-24 -3.5t-17.5 -11.5t-5.5 -16q2 -27 83 -337h-5h-4q-104 -3 -199 -22q-69 74 -103 113
q-8 9 -15.5 14t-13.5 6.5t-11 0.5t-8.5 -4t-5.5 -7t-3 -8t-1 -7q8 -47 36 -142q-7 -2 -12.5 -4t-8.5 -5t-3 -6v0q0 -9 24 -15q-29 -97 -36 -141q-1 -5 1.5 -11t7 -10t11.5 -5.5t17 3.5t21 18q35 39 103 113q95 -19 199 -23h5h1h1h2q-81 -308 -83 -336q-1 -8 5.5 -16
t17.5 -12t24 -4t27 8.5t24 23.5q19 30 95 161h81q11 0 20 4t12.5 12.5t-6.5 21.5q-12 14 -54 53q36 62 46 80q154 -1 186 4q20 4 43 12t46 24.5t25 35.5z" />
    <glyph glyph-name="uni3482" unicode="&#x3482;" 
d="M592 741q-3 2 -9 4.5t-25.5 6.5t-40.5 3q-10 1 -19.5 0t-16.5 -2t-13.5 -2.5t-11.5 -3.5t-8 -3t-5 -2l-2 -1v-58h151v58zM799 -45v520q0 12 -4 21t-9 12l-4 3l-189 150h-152l-189 -150l-10 -9q-8 -11 -8 -27v-520q2 -1 0.5 -8.5t3 -19t11 -23t23 -19.5t40.5 -8h129h151
h130q67 0 76 60q1 6 1 18zM721 141q0 -6 -4.5 -10.5t-10.5 -4.5h-116q-4 0 -8 2t-6 5.5t-2 7.5v255q0 7 4.5 11.5t11.5 4.5h116q4 0 7.5 -2t5.5 -5.5t2 -8.5v-255z" />
    <glyph glyph-name="uni3483" unicode="&#x3483;" 
d="M647 480v-522q0 -15 -5.5 -29t-16.5 -26t-26 -19q-8 -3 -17 -5t-20 -2h-96q-21 0 -37 6.5t-26 19.5q-19 25 -19 59v518h263zM594 537h-158v93q0 7 0.5 13t1 10.5t2 8t3.5 6.5q4 6 11 12q3 2 5.5 4t5 5t5.5 6q14 13 25 22t19 16q16 12 30 17q19 7 29 5q6 -1 9.5 -3.5
t6.5 -6.5q4 -8 5 -20v-25v-163zM594 537z" />
    <glyph glyph-name="uni3484" unicode="&#x3484;" 
d="M780 332q5 -5 8.5 -11t5 -12.5t1.5 -14.5q0 -22 -15 -38l-363 -364q-17 -15 -39 -15q-5 0 -9 0.5t-8 2t-7.5 3t-7 4t-6.5 5.5l-248 249q-8 8 -12 17.5t-4 20.5q0 22 16 38l364 363q8 8 17 12t20 4q22 0 38 -16zM512 447q8 8 8 19q0 6 -2 10.5t-6 8.5t-9 6t-10 2
q-11 0 -19 -8l-267 -268q-8 -8 -8 -19q0 -2 0.5 -4t1 -4.5t1.5 -4t2 -3.5t3 -3q2 -3 5 -4.5t6.5 -2.5t7.5 -1q5 0 10 2t9 6zM865 399q13 -12 13 -28.5t-13 -29.5q-5 -6 -12.5 -9t-15.5 -3q-17 0 -29 12l-267 268q-12 12 -12 29q0 8 3 15t9 14q3 3 6 5t6.5 3.5t7.5 2.5t8 1
q17 0 29 -12zM943 685q-13 -11 -29 -11t-29 11q17 -17 25 -39q2 -6 3.5 -11.5t2.5 -11.5v-12q1 -6 0 -12q0 -8 -1.5 -16.5t-4.5 -16.5l-6 -16q-11 -24 -29 -45v-1q9 -8 9 -19t-9 -19q-4 -4 -9 -6t-10 -2q-12 0 -20 8l-171 172q-7 7 -7 19q0 3 0.5 5.5t1.5 5t2.5 4.5t3.5 4
q7 9 18 9q3 0 5.5 -0.5t5 -1.5t5 -3t4.5 -4v-1q21 20 45 30q25 11 49.5 12t46.5 -6q8 -2 15 -6t13.5 -8.5t11.5 -9.5q-6 6 -9 13t-3 15q0 17 12 28q13 12 29 12t29 -12q5 -6 8 -13.5t3 -15.5q1 -5 -0.5 -10.5t-4 -10t-6.5 -8.5zM943 685z" />
    <glyph glyph-name="uni3485" unicode="&#x3485;" 
d="M953 323q0 26 -20 54q-27 39 -66 68.5t-81 45.5t-78 24t-72 11q-6 7 -21.5 21t-33 28.5t-34 27.5t-27.5 22l-11 8q-49 33 -55 0v-134q-51 -27 -86.5 -52.5t-48.5 -40.5t-25.5 -29.5t-22.5 -20.5q-7 -4 -14 -4.5t-15 3.5t-16 10t-17.5 15t-18 18t-20.5 21t-22 21
q-57 51 -71 21q-3 -8 -2 -21q2 -16 13.5 -45.5t24.5 -58.5q5 -15 -3 -33q-33 -71 -35 -97q-3 -33 21 -30q20 2 52 30q10 9 22 21t20.5 21t18 18.5t17.5 15t16 9.5t15 4t14 -5q10 -6 22.5 -20.5t25.5 -29.5t48.5 -40.5t86.5 -52.5v-134l3 -12q12 -19 52 12l99 81q21 18 28 26
q36 3 72 11t78 24t81 45.5t66 68.5q20 28 20 54v0v0zM801 276q-9 0 -17.5 4t-14.5 10t-9.5 15t-3.5 18q0 20 13 33.5t32 13.5t32.5 -13.5t13.5 -33.5q0 -13 -6 -23.5t-16.5 -17t-23.5 -6.5z" />
    <glyph glyph-name="uni3486" unicode="&#x3486;" 
d="M823 459q0 3 -2 6v4h-3q-4 5 -12 5h-50q-5 16 -11 32t-18 38.5t-24 28.5q-11 6 -41.5 8t-56.5 1l-25 -1v58q0 28 14 41t47 13h123h1v1q7 11 9 22.5t-0.5 20t-4.5 12.5t-4 6h-130q-6 0 -12.5 -0.5t-12.5 -1.5t-12.5 -3t-12.5 -5q-26 -11 -42 -30q-8 -9 -12 -16t-8 -17
q-1 -5 -2.5 -11t-2 -11.5t-1 -10.5t-0.5 -9v-59q-166 3 -191 -15q-11 -8 -24 -28.5t-20.5 -35t-14.5 -28.5h-43q-4 0 -8 -2t-6 -5.5t-2 -7.5v-96q0 -6 4.5 -10.5t11.5 -4.5h57l52 -441q7 -3 20.5 -7t54.5 -12t82.5 -10.5t100.5 4t112 25.5l50 441h53q10 0 14 8h1v1q2 3 2 6
v96z" />
    <glyph glyph-name="uni3487" unicode="&#x3487;" 
d="M515 754q-89 0 -170 -35t-139.5 -93.5t-93 -139.5t-34.5 -170t34.5 -170t93 -139.5t139.5 -93t170 -34.5t170 34.5t139.5 93t93.5 139.5t35 170t-35 170t-93.5 139.5t-139.5 93.5t-170 35zM515 -69q-105 0 -193.5 51.5t-140.5 140.5t-52 193.5t52 193.5t140.5 140.5
t193.5 51.5t194 -51.5t140.5 -140.5t51.5 -193.5t-51.5 -193.5t-140.5 -140.5t-194 -51.5zM444 333q24 9 36 26q6 9 9 19t3 22q0 18 -6.5 34t-20.5 29q-27 25 -71 25q-22 0 -39.5 -6t-30.5 -19q-27 -25 -27 -62q0 -24 12 -42q12 -17 37 -26q-30 -8 -46 -30q-17 -22 -17 -55
q0 -44 31 -73.5t81 -29.5t80.5 29t30.5 73q0 31 -16 54q-4 5 -9 10t-10.5 9t-12.5 7zM340 402q0 7 2 13.5t5.5 12t8.5 10.5t11 8.5t13 5t14 1.5q5 0 9.5 -0.5t8.5 -2t7.5 -3t7 -4t6.5 -5.5q5 -5 8.5 -11t5 -12.5t1.5 -14.5q0 -21 -15 -36t-38 -15q-12 0 -22 4t-17.5 11.5
t-11.5 17t-4 20.5zM443 198.5q-19 -18.5 -48 -18.5q-9 0 -18 2t-17 6.5t-14 11t-10 14.5q-9 16 -9 34q0 28 19 47t48 19t48.5 -19t19.5 -49q0 -29 -19 -47.5zM686 333q12 4 21 11t14 15q7 9 10 19t3 22q0 37 -27 62.5t-71 25.5q-22 0 -40 -6t-31 -19q-26 -25 -26 -62
q0 -24 12 -42q12 -17 36 -26q-29 -8 -45 -30q-17 -22 -17 -55q0 -44 30.5 -73.5t80.5 -29.5t81 29t31 73q0 31 -17 54q-8 11 -19 19t-26 13zM582 402q0 5 0.5 8.5t2 7.5t3.5 7.5t4 6.5t6 6q7 8 17 11.5t21.5 3.5t21 -4t17 -11.5t11.5 -17t4 -20.5q0 -21 -15 -36t-38 -15
q-12 0 -22 4t-17.5 11.5t-11.5 17t-4 20.5zM685 198.5q-19 -18.5 -48 -18.5h-6q-3 0 -6 0.5t-6 1.5l-6 2l-6 2q-3 1 -5 3q-8 4 -14.5 10.5t-10.5 14.5t-6 16.5t-2 17.5q0 28 19 47t47 19q30 0 49.5 -19t19.5 -49q0 -29 -19 -47.5z" />
    <glyph glyph-name="uF0001" unicode="&#xf0001;" horiz-adv-x="1024" 
d="M512 722q-115 0 -212.5 -56.5t-154 -154t-56.5 -211.5q0 -86 33.5 -164.5t90 -135t135 -89.5t164.5 -33q114 0 211.5 56.5t154 153.5t56.5 212q0 69 -21.5 133t-60.5 116t-91 91t-116.5 60.5t-132.5 21.5zM679 328v-58h-110v-83h111v-55h-112v-111h-111v111h-114v55h114
v84h-114v56h113l-136 228h73l121 -196l118 196h70l-134 -227h111z" />
    <glyph glyph-name="uF0002" unicode="&#xf0002;" horiz-adv-x="1024" 
d="M511 610q-60 0 -124.5 -25.5t-116 -64.5t-93.5 -83t-65 -84.5t-23 -65.5q0 -13 6.5 -30t18 -36.5t28.5 -41t37 -43t45 -43t51 -41t55.5 -35.5t58.5 -28t60.5 -19t61.5 -7q49 0 102 18t98 46.5t86.5 64.5t71 71.5t47 68.5t17.5 55q0 24 -22.5 64t-64.5 84.5t-93 84
t-116 65t-126 25.5zM511 78q-19 0 -44.5 33.5t-44 84t-18.5 91.5q0 40 17.5 90t43 84.5t46.5 34.5t47 -34.5t43.5 -84.5t17.5 -90q0 -41 -18.5 -91t-44.5 -84t-45 -34z" />
    <glyph glyph-name="uF0003" unicode="&#xf0003;" horiz-adv-x="1024" 
d="M146 581v3l2 8q2 6 4 11.5t6.5 12t10 11t14.5 7.5t20 3h28v-97v-5q0 -3 2.5 -10.5t6.5 -13t12.5 -10t20.5 -4.5h84h3q1 0 5.5 0.5t8.5 2t9 5t8.5 7.5t6 11.5t2.5 16.5v97h225v-98q-1 -1 -0.5 -2.5t1 -6t2 -8.5t4.5 -9t7.5 -8t11.5 -5.5t16 -2.5h85h4q3 0 10 2.5t12.5 6.5
t10 12.5t4.5 20.5v98h28l3 1q3 0 8 -1t11 -2.5t12 -6t11 -10t8 -15.5t3 -22v-338l-85 -83l-83 82l-197 -195l112 -112h-421q-2 0 -6 0.5t-14 3.5t-17 8t-13.5 16.5t-6.5 27.5v590zM792 -150l-196 197l113 113l84 -84l84 84l113 -113zM286 694h57v-141h-57v141zM680 694h57
v-141h-57v141z" />
    <glyph glyph-name="uF0004" unicode="&#xf0004;" horiz-adv-x="1024" 
d="M512 -94q-5 3 -14.5 8.5t-38.5 24t-57 39t-66.5 51.5t-71 63t-66 73t-57 81.5t-38.5 88t-15 93.5q1 39 11.5 71t27.5 53t38.5 37.5t41 25.5t38 14.5t28 7.5t10.5 2q134 -4 229 -126q3 5 9 13.5t26 30t42.5 38t58.5 30t75 14.5q48 1 89 -19t66.5 -51.5t39.5 -67.5t15 -71
q0 -32 -10 -70.5t-29.5 -84.5t-54 -94.5t-79 -96t-109 -94.5t-139.5 -84z" />
    <glyph glyph-name="uF0006" unicode="&#xf0006;" horiz-adv-x="1024" 
d="M246 50q-5 0 -13 0.5t-30 6t-41.5 17.5t-41.5 39t-34 65v258q1 8 3.5 20t12 42.5t21 53.5t32 42.5t43.5 19.5q1 -1 2.5 -1t7 -3t11 -7.5t14 -15.5t16.5 -25t18 -37.5t19 -52.5h445q2 6 5.5 15.5t13.5 34t20 43t23.5 33.5t25.5 16q1 -3 7 0.5t19 -6t26.5 -24t30 -53.5
t29.5 -94v-259q0 -2 -1 -6t-5.5 -15t-10.5 -21.5t-18 -24t-27 -24.5t-37.5 -21t-48.5 -16h-537z" />
    <glyph glyph-name="uF0007" unicode="&#xf0007;" horiz-adv-x="1024" 
d="M89 466h98v-221h-98v221zM244 496q5 0 12.5 0.5t32.5 3.5t50.5 7t62.5 13t72 20t76 28.5t77 38.5t72.5 50.5t64.5 63.5h22q68 -12 99 -124q25 -91 21 -240l-2 -70q-14 -187 -111 -235q-13 -7 -27 -10l-24 23q-116 98 -349 133q-71 11 -149 14v284zM308 145q0 -5 2 -14.5
t10 -39.5t20 -60t35 -72t53 -80h5h13q10 0 19 1t20.5 3.5t20.5 6t16.5 9.5t10.5 14q1 3 2 8t-3.5 20t-17.5 29q-2 3 -13.5 15t-24.5 27.5t-27.5 36t-25.5 46t-15 50.5h-100z" />
    <glyph glyph-name="uF0008" unicode="&#xf0008;" horiz-adv-x="1024" 
d="M17 -79q376 155 433 432h-420v74h432v24v221h-375v73h853v-73h-388q0 -14 -0.5 -32.5t-1 -42t-2.5 -52.5v-118h445v-74h-433q103 -322 442 -412q-25 -41 -54 -86q-347 135 -437 425q-77 -270 -437 -437q-24 37 -57 78z" />
    <glyph glyph-name="uF0009" unicode="&#xf0009;" horiz-adv-x="1024" 
d="M17 447q70 49 127 106q-49 94 -123 168l53 41q74 -74 119 -147q28 34 49.5 65t36.5 57l57 -41q-27 -43 -53.5 -80.5t-52.5 -70.5q73 -159 73 -482q0 -216 -155 -220q-57 0 -98 4q-4 40 -12 81q49 -8 98 -8q94 -4 98 151q0 102 -8 188q-78 -98 -164 -167q-20 28 -45 61
q135 102 196 192q-16 78 -41 139q-44 -49 -106 -94q-24 29 -49 57zM331 647h155v139h74v-139h205v139h74v-139h163v-69h-163v-123h-74v123h-205v-123h-74v123h-155v69zM373 423h575v-601h-73v70h-429v-70h-73v601zM446 358v-173h180v173h-180zM446 120v-171h180v171h-180z
M875 358h-180v-173h180v173zM695 120v-171h180v171h-180z" />
    <glyph glyph-name="uF000A" unicode="&#xf000a;" horiz-adv-x="1024" 
d="M262 798h70v-319h73v-65h-244v-140h187v-424h-69v363h-119q0 -253 -77 -380q-12 13 -27.5 27t-33.5 31q73 102 69 408v466h70v-286h101v319zM381 91h110q-24 25 -40 45q89 41 138 106h-147v461h172q4 13 9 29t10.5 35t12.5 43l78 -9q-4 -12 -12 -32q-9 -23 -15 -39
t-10 -27h249v-461h-265q-49 -82 -151 -151h188v114h73v-114h225v-65h-225v-188h-73v188h-327v65zM508 642v-138h146v138h-146zM626 303q25 53 29 140h-147v-140h118zM723 443q-4 -78 -24 -140h171v140h-147zM870 642h-146v-138h146v138z" />
    <glyph glyph-name="uF000B" unicode="&#xf000b;" horiz-adv-x="1024" 
d="M75 296h375v-449h-77v65h-225v-65h-73v449zM148 226v-253h225v253h-225zM172 766h679v-359h-679v359zM250 696v-220h523v220h-523zM572 296h376v-449h-73v65h-225v-65h-78v449zM650 226v-257h225v257h-225z" />
    <glyph glyph-name="uF000C" unicode="&#xf000c;" horiz-adv-x="1024" 
d="M17 226q28 4 102 16q74 13 115 17v184h-217v69h217v155q-82 -16 -172 -24q-4 18 -9 37.5t-11 39.5q228 21 416 57l25 -73q-4 0 -13 -4q-50 -8 -90 -14.5t-69 -10.5v-163h253q-8 159 -12 294h78q0 -110 12 -294h363v-69h-359q16 -164 41 -270q131 110 192 216l69 -44
q-47 -66 -106 -128t-131 -122q49 -114 102 -147q70 -49 86 13q17 57 29 159q44 -16 77 -29q-6 -34 -14 -70t-18 -73q-25 -98 -106 -102q-86 0 -160 102q-32 33 -57 94q-55 -41 -113 -75.5t-120 -63.5q-24 41 -49 66q143 65 258 151q-45 135 -58 323h-257v-168q110 21 204 37
q0 -41 4 -74q-44 -12 -208 -41v-216q4 -118 -135 -127h-106q-4 45 -16 82h45q49 -4 73 -4q66 -4 62 53v196q-62 -12 -164 -28q-24 -9 -32 -9zM712 720l53 49q106 -82 175 -147l-57 -57q-41 40 -171 155z" />
    <glyph glyph-name="uF000D" unicode="&#xf000d;" horiz-adv-x="1024" 
d="M63 646h98q40 94 61 163l86 -24q-13 -25 -37 -78l-9 -19q-5 -9 -8.5 -16.5t-6.5 -14t-5 -11.5h200v-780h-73v78h-229v-86h-77v788zM140 573v-241h229v241h-229zM140 258v-249h229v249h-229zM458 446q90 151 156 363l85 -20q-1 -3 -12 -37q-12 -32 -41 -106h319
q-12 -503 -17 -613q-4 -179 -200 -171q-41 0 -102 -4h-49q-8 49 -16 86h45q77 -4 126 -4q115 -9 119 110q8 123 12 523h-265q-9 -13 -21 -41q-45 -94 -69 -131q-29 20 -70 45zM544 377l61 45q115 -139 176 -225l-74 -53q-73 110 -163 233z" />
    <glyph glyph-name="uF000E" unicode="&#xf000e;" horiz-adv-x="1024" 
d="M71 619h882v-73h-400v-225h363v-77h-363v-286h441v-65h-964v65h441v286h-363v77h363v225h-400v73zM442 775l78 28q32 -78 65 -151l-82 -28q-12 37 -61 151z" />
    <glyph glyph-name="uF000F" unicode="&#xf000f;" horiz-adv-x="1024" 
d="M18 137q294 175 450 408h-413v78h462q-1 3 -2.5 7t-2.5 8.5t-3 9.5l-4 12q-2 5 -5 12q-28 69 -45 106l78 25q8 -25 33 -78q5 -13 9 -24.5t7.5 -21.5t6.5 -17.5t5 -14.5l-69 -24h473v-78h-441l-8 -8q41 -171 115 -286q143 106 232 192l62 -61q-131 -102 -250 -196
q103 -139 299 -237l-4 -4q-21 -20 -54 -69q-363 200 -453 584q-61 -90 -139 -172v-343q74 16 241 86q0 -53 4 -82q-106 -37 -265 -102q-25 -12 -45 -25l-45 78q6 4 10.5 8.5t8 9.5t5.5 10.5t3.5 12t1.5 12.5v266q-86 -78 -201 -152q-20 37 -57 70z" />
    <glyph glyph-name="uF0010" unicode="&#xf0010;" horiz-adv-x="1024" 
d="M482 794h82q0 -28 -5 -93v-78h364v-645q8 -123 -131 -123q-106 -4 -155 -4q-8 44 -17 86h70q57 -4 85 -4q70 -4 66 53v563h-282q-4 -130 -40 -216l40 37q131 -107 257 -229l-61 -65q-77 85 -245 236q-53 -122 -252 -249q-9 17 -37 53q-16 17 -16 21q281 131 273 412h-286
v-706h-77v780h363q4 57 4 171z" />
    <glyph glyph-name="uF0011" unicode="&#xf0011;" horiz-adv-x="1024" 
d="M453 357l66 37q33 -49 61 -90l-33 -20h458v-69h-450q45 -86 107 -139q81 36 220 114l41 -73q-123 -54 -200 -86q110 -70 286 -90q-21 -29 -45 -78q-347 74 -466 315q-53 -53 -126 -110v-135q122 28 224 61v-69q-135 -41 -208 -66q-24 -12 -69 -32l-45 57q28 16 24 73v66
q-98 -58 -229 -98q-12 28 -45 61q274 90 417 229h-404v69h465q-2 4 -7 11t-13 18q-10 14 -17.5 25t-11.5 19zM306 803h74v-458h-74v156q-20 -13 -54.5 -33t-84.5 -49q-57 -37 -81 -49q-13 24 -41 73q184 94 261 139v221zM69 705l54 49q89 -74 134 -119l-57 -57l-9 9l-11 11
l-13 13q-32 37 -98 94zM425 668h249v131h73v-131h258v-69h-258v-131h221v-69h-511v69h217v131h-249v69z" />
    <glyph glyph-name="uF0012" unicode="&#xf0012;" horiz-adv-x="1024" 
d="M943 -88l-53 -78q-73 45 -245 131q-69 37 -102 53q-122 -94 -465 -188q-17 33 -45 78q298 61 428 151l-289 135q32 69 98 229q8 18 14 32.5t10 24.5h-253v73h278q36 94 77 245l86 -16q-2 -6 -5 -16l-7 -25q-37 -119 -62 -188h588v-73h-208q-37 -258 -179 -405
q224 -106 334 -163zM531 112q143 143 176 368h-327q-57 -160 -102 -253q118 -49 253 -115z" />
    <glyph glyph-name="uF0013" unicode="&#xf0013;" horiz-adv-x="1024" 
d="M212 586h70v-200q0 -77 -4.5 -140.5t-12.5 -112.5q94 -98 196 -200l-61 -53q-25 28 -86 98q-24 26 -41.5 45.5t-27.5 31.5q-29 -106 -168 -220q-2 3 -5 6t-6 6.5t-5.5 6.5t-5.5 6t-6 6.5t-6 6.5t-6 6.5t-6.5 6.5t-6.5 6q38 26 67.5 54t50.5 58.5t33 63.5q37 85 37 290
v228zM82 742h335v-286q94 147 147 347l77 -20q-24 -66 -49 -136h376q0 -354 -8 -620q0 -180 -196 -172h-151q-3 12 -17 82q70 -8 168 -8q122 -8 122 110q8 143 8 539h-330q-37 -86 -78 -159q-45 24 -69 32v-318h-70v539h-196v-547h-69v617zM678 337l69 21q11 -37 25 -84
t33 -104q20 -74 32 -111l-77 -20l-13 57q-40 -4 -118 -8q-49 -8 -69 -8q-41 -4 -86 -16l-33 65q33 20 49 57q57 143 102 319l78 -17q-21 -64 -41 -123t-39.5 -113t-38.5 -103q86 9 176 13q-16 85 -49 175z" />
    <glyph glyph-name="uF0014" unicode="&#xf0014;" horiz-adv-x="1024" 
d="M18 286q160 245 233 515l82 -25q-25 -78 -53 -155h265v-65q-57 -495 -445 -719q-25 32 -49 69q368 208 413 641h-213q-28 -69 -65 -130q49 -33 135 -102q28 -21 40 -33l-53 -65q-94 89 -155 134q-1 -4 -3 -9l-6 -11q-3 -6 -7 -12q-11 -20 -21.5 -36.5t-19.5 -31
t-17.5 -26.5t-15.5 -21q-24 49 -45 82zM643 793h78v-960h-78v960zM721 429l53 57q155 -118 241 -188l-53 -73q-78 69 -229 192z" />
    <glyph glyph-name="uF0015" unicode="&#xf0015;" horiz-adv-x="1024" 
d="M447 772l73 37q8 -17 33 -49q33 -53 49 -82l-53 -28h376v-437h-78v49h-625q-8 -266 -139 -433q-8 8 -32 28l-4 4l-4 4q-2 2 -4 3.5t-3 3.5l-4 2q-1 2 -3 3.5t-3 2.5l-2 2l-4 2l-2 2q139 151 126 478v286h376q-4 6 -10 16t-14 24q-10 18 -18.5 33t-16 27.5t-14.5 21.5z
M226 580v-216v-29h621v245h-621z" />
    <glyph glyph-name="uF0016" unicode="&#xf0016;" horiz-adv-x="1024" 
d="M378 251q45 -94 110 -241q-8 12 8 -25q-16 -4 -53 -20q-3 -2 -24 -12q-4 20 -13 36q-175 -16 -339 -41l-36 82q45 29 69 86q53 114 102 245h-171v73h477v-73h-224q-74 -196 -147 -327q60 4 196 17q11 1 20 2t16 1.5t13 0.5q-7 15 -16 36.5t-21 48.5q-20 54 -33 82z
M76 712h396v-74h-396v74zM635 797h82q0 -40 -4 -114v-94h261v-37q-8 -416 -16 -526q-4 -168 -151 -168h-115q-8 41 -16 86q82 -8 122 -8q78 0 82 90q16 286 16 494h-187v-86q-5 -388 -229 -609q-25 33 -61 66q204 167 212 543v86h-151v69h155v208z" />
    <glyph glyph-name="uF0017" unicode="&#xf0017;" horiz-adv-x="1024" 
d="M439 -60q73 -4 273 0q225 0 294 4q-16 -41 -28 -77q-437 -4 -552 0q-139 4 -232 110q-86 -73 -127 -126l-41 85q29 21 110 90l21 21v330h-127v74h208v-417q74 -85 201 -94zM137 790q28 -33 130 -168q6 -5 10 -9.5t7 -8.5t4 -6q-4 0 -8 -5q-23 -12 -38 -22t-24 -18
q-81 118 -142 196zM688 312l61 41q103 -127 209 -286l-78 -53q-10 16 -21.5 35.5t-23.5 42.5q-200 -13 -400 -37q-33 -4 -69 -17l-37 70q24 12 57 57q78 119 139 245h-213v74h670v-74h-363q-66 -118 -164 -278q5 0 11 0.5t13 0.5t14.5 0.5t16 0.5t18 0.5t20 1.5t22 1.5
t24 1.5t25.5 2q127 8 175 12q-32 53 -98 147q-2 4 -4 7t-4 5zM378 741h547v-78h-547v78z" />
    <glyph glyph-name="uF0018" unicode="&#xf0018;" horiz-adv-x="1024" 
d="M275 806l82 -25q-8 -16 -20 -49q-7 -12 -15 -28.5t-10 -20.5h568q-4 -224 -17 -469q0 -184 -175 -176q-29 -2 -61.5 -3t-69.5 -1q0 33 -16 82h41q69 -4 106 -4q98 -5 98 93q12 192 12 409h-523q-36 -65 -77 -126h412v-295h-359v-180q-4 -77 90 -73h449q102 -4 114 53
q8 33 21 114q4 25 4 37q23 -9 39.5 -15.5t26 -9.5t11.5 -3q-6 -43 -12 -80t-12 -68q-29 -106 -176 -102h-482q-155 -4 -151 143v441q-49 -61 -102 -122q-16 29 -49 65q172 196 253 413zM251 422v-160h282v160h-282z" />
    <glyph glyph-name="uF0019" unicode="&#xf0019;" horiz-adv-x="1024" 
d="M23 692h94v106h65v-106h151v106h65v-106h90v-62h-90v-143h-106v-93h164v-234h-164v-97h196v-57h-196v-176h-66v176h-204v57h204v97h-162v234h162v93h-109v143h-94v62zM129 336v-119h97v119h-97zM182 630v-90h151v90h-151zM390 336h-98v-119h98v119zM696 315h70v-126h200
v-70h-200v-171h241v-61h-560v61h249v171h-200v70h200v126zM513 651h183v143h70v-143h188v-70h-188v-163h229v-65h-519v65h220v163h-183v70z" />
    <glyph glyph-name="uF001A" unicode="&#xf001a;" horiz-adv-x="1024" 
d="M63 201h360q4 16 4 45q4 29 4 41h77q0 -12 -4 -41q0 -29 -4 -45h450q-5 -66 -13 -163q-4 -37 -4 -53q-8 -143 -175 -135q-45 -4 -184 -4q-8 40 -21 85q107 -4 196 -4q102 -4 107 74q0 4 4 16q8 74 8 115h-380q-29 -209 -404 -307q-4 8 -12 21l-17 32q-8 13 -12 17
q335 73 367 237h-347v69zM125 749h783v-429h-783v429zM199 684v-115h281v115h-281zM199 503v-114h281v114h-281zM835 684h-281v-115h281v115zM554 503v-114h281v114h-281z" />
    <glyph glyph-name="uF001B" unicode="&#xf001b;" horiz-adv-x="1024" 
d="M1007 -85q-1 -2 -3 -5t-4.5 -6.5t-6 -7.5t-7.5 -10q-20 -32 -36 -53q-335 66 -433 254q-82 -192 -441 -262q-21 33 -49 74q347 49 412 200h-392v69h421q12 37 16 78h78q-3 -8 -5 -19.5t-4 -25.5q-4 -10 -6 -18.5t-2 -14.5h445v-69h-404q114 -155 421 -184zM117 496h363
v89h-424v70h322q-4 3 -9 7t-10.5 8t-12 9t-13.5 10t-15 11t-17 12q-37 28 -58 45l45 53q74 -49 147 -102l-57 -53h266l-37 49q74 41 139 102l57 -57q-78 -62 -135 -94h315v-70h-425v-89h372v-65h-372v-95h445v-69h-968v69h445v95h-363v65z" />
    <glyph glyph-name="uF001C" unicode="&#xf001c;" horiz-adv-x="1024" 
d="M565 152h319q-274 37 -363 183h-8q-49 -130 -351 -183h298v-307h-70v53h-208v-57h-69v302q-5 -1 -10 -2.5t-10.5 -2.5t-10.5 -2h-12q-5 -1 -10 -1q-4 8 -17 29q-20 32 -24 41q363 36 416 130h-375v66h404q8 32 12 73h73q-4 -41 -12 -73h167q-1 2 -2.5 4.5t-4 6.5t-6 8
t-7.5 9q-3 7 -8 17l-4 8l65 24q4 -12 24 -45q9 -10 14 -18t7 -14h200v-66h-380q114 -114 404 -118q0 -2 -0.5 -3t-1 -2.5t-2.5 -2.5q-24 -45 -37 -70q-8 0 -24 4q-6 0 -10.5 0.5t-8 1.5t-6.5 2v-306h-69v57h-212v-53h-70v307zM113 740h347v-254h-347v254zM182 678v-131h208
v131h-208zM182 91v-140h208v140h-208zM565 740h347v-254h-347v254zM635 678v-131h212v131h-212zM635 91v-140h212v140h-212z" />
    <glyph glyph-name="uF001D" unicode="&#xf001d;" horiz-adv-x="1024" 
d="M444 797h77v-131h364v-556h-364v-102q-8 -73 90 -69h196q86 -4 98 49q12 33 16 126q25 -6 45.5 -12t36.5 -12q-8 -78 -24 -135q-21 -94 -164 -90h-224q-156 -8 -147 139v106h-290v-69h-74v625h364v131zM154 592v-171h290v171h-290zM154 356v-172h290v172h-290zM807 592
h-286v-171h286v171zM521 184h286v172h-286v-172z" />
    <glyph glyph-name="uF001E" unicode="&#xf001e;" horiz-adv-x="1024" 
d="M577 -155h-77v310h-290q-17 -200 -119 -335l-12 12q-28 37 -49 54q70 85 90 192q20 102 20 343v319h805v-773q8 -126 -143 -126q-31 -2 -60.5 -3t-57.5 -1q0 4 -4 16q-5 45 -13 69h57q50 -4 74 -4q78 -4 74 66v171h-295v-310zM218 413q0 -111 -4 -188h286v188h-282z
M218 666v-183h282v183h-282zM872 666h-295v-183h295v183zM577 413v-188h295v188h-295z" />
    <glyph glyph-name="uF001F" unicode="&#xf001f;" horiz-adv-x="1024" 
d="M43 94q249 65 400 204q-2 4 -6 10t-10 14l-8 8q-4 4 -6.5 7t-6.5 6q-147 -98 -326 -151q-21 28 -45 69q216 49 400 180h-270v65h707v-65h-335q-18 -14 -36.5 -29.5t-36.5 -31.5q57 -58 89 -131q168 82 299 159l49 -65q-94 -49 -192 -98q73 -196 298 -270q-33 -28 -62 -69
q-220 90 -302 310q-3 -1 -7 -3.5t-9.5 -5.5t-11.5 -7q-11 -4 -19 -8t-14 -8q24 -70 24 -147q9 -197 -183 -192q-58 -5 -98 -5q-1 6 -2.5 12t-2.5 12t-2.5 11.5t-2.5 11.5t-2 11.5t-2.5 12t-2.5 11.5q25 -4 115 -4q114 -8 110 119q0 36 -8 73q-155 -155 -449 -253
q-13 28 -41 73q294 78 469 254q-6 16 -13 30t-15 27q-155 -139 -392 -213q-17 29 -41 66zM455 780l74 25q4 -8 10 -21l14 -32q21 -45 29 -70l-45 -12h433v-167h-74v98h-759v-98h-73v167h440q-24 69 -49 110z" />
    <glyph glyph-name="uF0020" unicode="&#xf0020;" horiz-adv-x="1024" 
d="M52 703h367v-74h-147q-29 -126 -78 -232h192v-527h-69v65h-127v-78h-69v405q-25 -45 -53 -82q-16 29 -45 65q122 172 175 384h-146v74zM190 331v-335h127v335h-127zM423 135h420v-69h-420v69zM582 629l-25 -290h233l33 327h-364v70h450l-45 -397h106q-8 -189 -16 -343
q0 -143 -156 -143q-53 -4 -134 -4q-4 61 -13 82h53q58 -4 90 -4q78 -4 86 77q8 127 8 266h-408l28 359h74z" />
    <glyph glyph-name="uF0021" unicode="&#xf0021;" horiz-adv-x="1024" 
d="M35 229h151q4 5 8.5 12t9.5 15t10 18q4 7 7 13.5t6 10.5l73 -16l-33 -53h250q-13 -160 -119 -237q6 -2 15.5 -6t21.5 -11q24 -12 42.5 -19t30.5 -9l-44 -61q-21 8 -66 32q-13 7 -25 12.5t-22 9.5t-18 7q-115 -74 -278 -114q-4 12 -24 40q-10 20 -13 25q139 33 245 82
q-49 24 -159 73q78 -33 -20 8q32 45 65 102h-114v66zM280 788h69v-220h204v-66h-204v-90l37 41q61 -37 147 -102l-45 -53q-12 8 -33 25q-61 53 -106 85v-102h-69v143q-74 -90 -213 -171q-12 24 -41 57q139 69 229 167h-208v66h233v220zM67 711l49 41q53 -49 115 -111
l-57 -44q-33 40 -107 114zM178 86q73 -29 151 -66q94 70 106 143h-208q-3 -5 -6.5 -11t-8 -12.5t-10.5 -12.5q-16 -29 -24 -41zM508 752l49 -49q-49 -49 -122 -111l-49 49q20 17 40.5 34.5t41 36.5t40.5 40zM680 796l73 -8q-8 -47 -20 -92t-29 -87h299v-70h-62
q-28 -294 -134 -461q34 -47 87 -90t125 -82q-37 -37 -53 -69q-63 41 -114.5 84.5t-89.5 90.5q-66 -81 -217 -192q-20 25 -12 17q-37 45 -41 49q155 98 225 196q-70 110 -102 314q-21 -37 -45 -73q-4 8 -33 45q-12 16 -16 20q114 163 159 408zM762 151q77 127 102 388h-184
q-4 -12 -12 -33q28 -228 94 -355z" />
    <glyph glyph-name="uF0022" unicode="&#xf0022;" horiz-adv-x="1024" 
d="M13 167q114 168 163 364h-151v69h155v192h74v-192h139v-69h-139v-163l41 40q69 -61 118 -114l-53 -53l-2 3l-3 2l-3 3l-4 4q-45 57 -94 98v-514h-74v522q-49 -159 -130 -269q-4 12 -21 41q-12 24 -16 36zM541 658v-270q0 -224 -37 -339q-33 -118 -139 -228l-41 41
q-2 1 -3.5 3t-2.5 3l-4 4l-2 2q-2 2 -3.5 3t-2.5 2.5t-2 2.5q94 94 126 196q33 106 33 310v343h363v-727q-4 -65 41 -61h12q41 -4 45 49q8 37 13 139q4 20 4 28q16 -8 34.5 -14t38.5 -10q-4 -43 -12 -127q-4 -28 -4 -41q-17 -106 -115 -102h-20q-118 -8 -114 127v666h-208z
" />
    <glyph glyph-name="uF0023" unicode="&#xf0023;" horiz-adv-x="1024" 
d="M96 646q0 37 -8 78q229 4 433 13t384 23l12 -81q-171 -13 -359 -17v-183h363v-78h-363v-176h449v-82h-449v-172q8 -126 -123 -122q-49 -4 -167 -4q-8 45 -20 90q69 -5 159 -5q82 -4 73 58v155h-449v82h449v176h-379v78h379v179z" />
    <glyph glyph-name="uF0024" unicode="&#xf0024;" horiz-adv-x="1024" 
d="M39 650h462q-8 15 -16.5 30t-17.5 30.5t-17.5 31t-18.5 30.5l74 37q24 -33 43.5 -65.5t33.5 -65.5l-65 -28h482v-78h-441v-134h354v-364q8 -131 -126 -127h-131q-4 25 -16 74h49q11 -1 21 -2t19.5 -1.5t17.5 -0.5h15q78 -4 74 69v278h-277v-535h-82v535h-273v-433h-78
v507h351v134h-437v78z" />
    <glyph glyph-name="uF0025" unicode="&#xf0025;" horiz-adv-x="1024" 
d="M30 442h200v142h-163v70h163v138h74v-138h151v-70h-151v-142h163v-74h-134v-156h143v-69h-143v-188q73 -16 175 -20q86 -5 262 0q192 0 237 4q-5 -13 -9 -33q-8 -25 -16 -45h-506q-237 12 -323 167q-33 -118 -82 -200q-20 45 -45 90q78 135 86 389l74 -4q-2 -50 -6.5 -94
t-10.5 -82q41 -86 90 -127v368h-229v74zM480 682v66h474q0 -17 -4 -61q-5 -78 -9 -127q-4 -155 -130 -151q-74 -4 -115 -4q-4 53 -12 77h33q53 -4 81 -4q74 0 74 86q4 74 4 118h-188q0 -196 -163 -314q-21 33 -49 65q143 82 143 249h-139zM528 335h413v-322h-413v322z
M598 270v-188h274v188h-274z" />
    <glyph glyph-name="uF0026" unicode="&#xf0026;" horiz-adv-x="1024" 
d="M161 200q111 13 213 29q-3 -9 -5.5 -18.5t-4 -18.5t-2.5 -18t-1 -19q-228 -20 -294 -40l-12 77q53 37 163 208q-130 -4 -179 -12l-17 70q78 65 209 343l73 -33q-114 -196 -192 -310q25 0 74 4h69q16 24 49 77q6 13 11.5 22t9.5 15l73 -37q-151 -224 -237 -339zM22 -20
q156 20 348 53q0 -12 -4 -37q0 -24 -5 -37q-155 -12 -318 -49zM623 784l73 21q13 -33 41 -98q4 -17 8 -29t8 -20l-77 -21h335v-69h-400v-159h310q-4 -183 -12 -380q-4 -176 -184 -167q-33 0 -78 -4h-49q0 44 -12 89q74 -8 135 -8q110 -8 110 94l4 51v-2q4 159 8 257h-237
q-12 -359 -257 -518q-24 32 -53 69q151 98 192 233q49 118 45 445h-135v69h274q-25 82 -49 147z" />
    <glyph glyph-name="uF0027" unicode="&#xf0027;" horiz-adv-x="1024" 
d="M411 792h81v-171h343l-20 -286h143q-8 -104 -16 -216q-8 -172 -172 -168h-147q0 21 -16 82q77 -8 151 -8q102 -12 110 102q4 77 8 139h-384v-433h-81v433h-372v69h372v212h-307v74h307v171zM750 547h-258v-212h245zM717 735l53 53q126 -81 216 -147l-53 -65
q-65 57 -216 159z" />
    <glyph glyph-name="uF0028" unicode="&#xf0028;" horiz-adv-x="1024" 
d="M80 756h869v-923h-73v49h-722v-49h-74v923zM154 687v-740h722v740h-722zM186 445q143 106 224 229l66 -29q-17 -28 -41 -53h347v-61q-78 -94 -176 -155q111 -45 250 -57q-8 -21 -25 -58q4 9 -8 -16q-172 33 -286 90q-127 -65 -335 -110q-3 9 -7.5 20t-10.5 23t-15 26
q160 25 295 82q-78 57 -127 110q-12 -13 -24.5 -25.5t-25.5 -23.5t-26 -21.5t-26 -19.5zM259 66l21 65q32 -4 114 -16q282 -41 359 -62l-24 -73q-200 49 -470 86zM361 192l21 70q16 -4 53 -9q188 -32 253 -44l-24 -70q-156 33 -303 53zM688 527h-298q61 -70 147 -115
q94 54 151 115z" />
    <glyph glyph-name="uF0029" unicode="&#xf0029;" horiz-adv-x="1024" 
d="M504 813l74 -21q-8 -8 -16 -20q192 -196 445 -274q-10 -13 -18 -26t-15 -25t-12 -22q-35 12 -70.5 29.5t-72.5 39.5v-363h-540v-196q2 0 6.5 1t10.5 3q163 20 228 36q-8 -28 -8 -73q-98 -16 -253 -49q-20 -6 -37.5 -13.5t-31.5 -15.5l-29 74q41 20 41 61v523
q-33 -19 -67.5 -36t-71.5 -34q-22 36 -41 66q307 130 478 335zM521 723q-27 -30 -57.5 -58.5t-64.5 -55.5t-72 -52.5t-80 -50.5h547q-179 114 -273 217zM279 441v-89h471v89h-471zM279 286v-90h471v90h-471zM410 115q37 -13 135 -49q53 -21 82 -33q1 0 9.5 4.5t14.5 7.5
q131 57 196 98l49 -69q-34 -15 -85 -37q-62 -29 -90 -41q41 -16 118 -45q66 -20 94 -32l-32 -78q-233 106 -523 212zM451 613l70 33q8 -17 24 -41q12 -20 21 -35.5t16 -26.5l-74 -32q-12 41 -57 102z" />
    </font>
</defs>
</svg>
